<?xml version="1.0" encoding="UTF-8" standalone="no"?>
<svg
   xmlns:dc="http://purl.org/dc/elements/1.1/"
   xmlns:cc="http://creativecommons.org/ns#"
   xmlns:rdf="http://www.w3.org/1999/02/22-rdf-syntax-ns#"
   xmlns:svg="http://www.w3.org/2000/svg"
   xmlns="http://www.w3.org/2000/svg"
   xmlns:sodipodi="http://sodipodi.sourceforge.net/DTD/sodipodi-0.dtd"
   xmlns:inkscape="http://www.inkscape.org/namespaces/inkscape"
   version="1.0"
   width="50"
   height="475"
   viewBox="0 0 40 380"
   preserveAspectRatio="xMidYMid meet"
   id="svg3041"
   inkscape:version="0.48.4 r9939"
   sodipodi:docname="EternityII_Title.svg">
  <defs
     id="defs3057" />
  <sodipodi:namedview
     pagecolor="#ffffff"
     bordercolor="#666666"
     borderopacity="1"
     objecttolerance="10"
     gridtolerance="10"
     guidetolerance="10"
     inkscape:pageopacity="0"
     inkscape:pageshadow="2"
     inkscape:window-width="1883"
     inkscape:window-height="969"
     id="namedview3055"
     showgrid="false"
     inkscape:zoom="1.1023423"
     inkscape:cx="115.54148"
     inkscape:cy="25"
     inkscape:window-x="179"
     inkscape:window-y="198"
     inkscape:window-maximized="0"
     inkscape:current-layer="svg3041" />
  <metadata
     id="metadata3043">
Created by potrace 1.13, written by Peter Selinger 2001-2015
<rdf:RDF>
  <cc:Work
     rdf:about="">
    <dc:format>image/svg+xml</dc:format>
    <dc:type
       rdf:resource="http://purl.org/dc/dcmitype/StillImage" />
    <dc:title />
  </cc:Work>
</rdf:RDF>
</metadata>
  <g
     transform="matrix(0,-0.1,-0.1,0,41.654908,381.50107)"
     id="g3045"
     style="fill:#000000;stroke:none">
    <path
       d="M 30,371 C 19,350 16,91 26,53 32,30 35,30 188,30 l 155,0 28,29 c 41,44 52,68 33,75 -9,3 -67,6 -130,6 -69,0 -114,4 -114,10 0,6 36,10 89,10 l 89,0 31,42 c 17,23 31,46 31,50 0,4 -55,8 -122,8 -67,0 -118,3 -115,6 4,4 43,6 88,5 l 81,-2 44,47 c 25,26 43,52 41,58 -2,7 -65,12 -190,14 -176,2 -187,1 -197,-17 z m 360,-9 c 0,-9 -12,-29 -27,-44 -26,-27 -31,-28 -119,-28 -70,0 -93,-3 -97,-14 -8,-21 14,-26 129,-26 57,0 104,-3 104,-6 0,-3 -12,-21 -26,-40 -26,-34 -27,-34 -108,-34 -83,0 -114,-9 -102,-29 5,-7 50,-11 126,-11 65,0 121,-4 124,-8 3,-5 -9,-25 -25,-46 L 338,39 192,42 45,45 42,199 c -1,86 2,158 7,165 6,7 65,11 175,12 143,1 166,-1 166,-14 z"
       id="path3047"
       inkscape:connector-curvature="0" />
    <path
       d="m 436,349 c -53,-57 -46,-74 29,-74 l 60,0 5,-120 5,-120 60,0 60,0 3,118 3,117 43,0 c 38,0 48,5 74,36 l 31,37 3,-154 3,-154 160,-2 160,-3 25,34 25,34 5,-31 c 5,-31 7,-32 58,-35 62,-4 82,8 82,49 0,29 0,29 63,29 58,0 65,-2 107,-40 45,-40 45,-40 128,-40 99,0 104,10 36,67 l -47,39 28,26 c 23,21 29,37 33,82 4,54 3,58 -32,91 -21,19 -46,35 -56,35 -10,0 -22,5 -25,10 -4,6 -64,10 -149,10 l -142,0 -25,-27 c -77,-86 -72,-90 133,-92 89,-1 164,-4 166,-6 3,-2 2,-11 -1,-20 -5,-13 -31,-15 -166,-15 -88,0 -166,-3 -175,-6 -11,-4 -16,-19 -16,-45 l 0,-39 -120,0 c -73,0 -120,4 -120,10 0,6 35,10 84,10 l 85,0 30,37 c 50,60 46,63 -84,63 -63,0 -115,3 -115,8 0,4 41,7 91,7 84,0 91,2 110,25 40,50 51,69 44,80 -4,6 -126,10 -364,10 l -359,0 -36,-41 z m 362,13 c 1,-5 -9,-24 -23,-41 -23,-27 -33,-31 -76,-31 l -48,0 -3,-122 -3,-123 -50,0 -50,0 -3,123 -3,122 -58,0 c -32,0 -60,3 -64,6 -9,10 53,73 77,76 44,8 301,-2 304,-10 z m 379,4 c 3,-2 -8,-21 -24,-40 l -28,-36 -98,0 c -88,0 -98,-2 -95,-17 3,-16 18,-18 116,-21 123,-3 132,-9 84,-55 -24,-23 -36,-26 -112,-29 -71,-3 -85,-6 -88,-21 -3,-15 8,-17 117,-17 66,0 122,-4 125,-9 6,-8 -28,-59 -49,-73 -5,-4 -74,-8 -152,-8 l -143,0 0,163 c 0,90 2,166 4,168 6,6 337,1 343,-5 z m 415,-10 c 46,-20 78,-64 78,-110 0,-27 -8,-44 -37,-72 l -37,-37 47,-41 c 26,-23 47,-44 47,-48 0,-5 -30,-8 -66,-8 -65,0 -69,2 -122,45 -50,42 -59,45 -111,45 -69,0 -79,-6 -83,-50 -3,-34 -4,-35 -50,-38 l -48,-3 0,85 0,86 149,0 c 161,0 201,8 201,39 0,34 -32,41 -189,41 -103,0 -151,3 -151,11 0,6 15,25 33,43 l 32,31 136,-2 c 93,-2 146,-7 171,-17 z"
       id="path3049"
       inkscape:connector-curvature="0" />
    <path
       d="m 1756,371 c -15,-17 -18,-40 -17,-163 0,-79 0,-151 1,-161 0,-16 8,-18 63,-15 l 62,3 5,79 5,78 35,-31 c 19,-17 60,-50 90,-74 30,-23 57,-45 58,-49 2,-5 21,-8 41,-8 65,0 71,15 71,187 0,174 -1,176 -82,171 l -53,-3 -5,-82 -5,-82 -55,50 c -30,27 -67,57 -82,66 -16,10 -28,21 -28,25 0,4 -7,8 -15,8 -8,0 -15,5 -15,10 0,18 -56,11 -74,-9 z m 387,0 c 4,-1 6,-71 5,-157 -3,-131 -6,-159 -19,-167 -20,-13 -58,-3 -84,20 -11,10 -32,27 -46,38 -14,11 -50,39 -78,63 -29,23 -57,40 -62,36 -5,-3 -9,-41 -9,-85 l 0,-80 -47,3 -48,3 -3,149 c -3,161 1,176 48,176 29,0 42,-9 154,-102 38,-32 75,-58 83,-58 10,0 13,19 13,78 0,43 2,81 5,84 4,4 55,3 88,-1 z"
       id="path3051"
       inkscape:connector-curvature="0" />
    <path
       d="m 2194,377 c -2,-7 -3,-87 -2,-177 l 3,-165 60,0 60,0 2,100 c 4,143 3,141 60,139 26,-1 56,-2 65,-3 15,-1 18,-16 20,-118 l 3,-118 60,0 60,0 3,118 3,117 38,0 c 42,0 86,28 96,60 8,27 29,25 48,-3 8,-13 49,-58 90,-100 75,-76 76,-78 79,-135 l 3,-57 60,0 60,0 6,56 c 3,31 12,65 20,76 29,41 152,173 157,168 3,-2 -1,-11 -8,-20 -18,-21 -5,-45 25,-45 24,0 25,-2 25,-64 0,-51 -4,-68 -18,-78 -25,-19 -62,-68 -62,-84 0,-11 23,-14 103,-14 l 104,0 31,35 c 39,43 41,63 5,67 -27,3 -28,6 -31,65 -3,58 -1,64 28,91 16,16 30,34 30,41 0,6 5,11 10,11 7,0 7,-7 0,-21 -16,-29 -5,-49 25,-49 24,0 25,-2 25,-65 0,-46 -4,-67 -14,-71 -18,-7 -80,-94 -72,-101 3,-4 52,-6 108,-4 101,2 103,2 135,34 43,42 43,65 1,69 l -33,3 -3,68 c -2,53 0,67 12,67 17,0 73,68 78,95 3,19 -4,20 -96,23 -97,3 -100,2 -128,-25 l -30,-28 4,25 3,25 -100,3 c -90,2 -103,0 -123,-18 l -22,-21 0,21 c 0,18 -6,20 -69,20 l -70,0 -58,-65 -57,-66 -61,66 -60,65 -247,0 -246,0 -36,-42 c -35,-42 -36,-42 -36,-16 0,51 -8,58 -66,58 -35,0 -56,-5 -60,-13 z m 111,-19 c 3,-13 4,-88 3,-168 l -3,-145 -50,0 -50,0 -3,154 c -2,104 1,158 9,167 6,8 29,14 50,14 32,0 40,-4 44,-22 z m 421,10 c 3,-4 -6,-23 -21,-42 -25,-33 -32,-36 -76,-36 l -49,0 -1,-102 c -1,-57 -2,-107 -4,-113 -1,-5 -3,-16 -3,-22 -1,-9 -19,-13 -52,-13 l -50,0 0,125 0,125 -65,0 c -36,0 -65,4 -65,8 0,4 15,24 33,43 l 32,34 157,0 c 87,-1 160,-4 164,-7 z m 214,-57 c 30,-34 59,-61 65,-61 5,0 34,28 65,62 56,62 57,62 113,63 35,1 57,-3 57,-9 0,-6 -40,-56 -90,-111 -87,-98 -89,-101 -92,-155 l -3,-55 -44,-3 c -52,-4 -61,5 -61,68 0,43 -5,50 -95,147 -52,55 -95,104 -95,106 0,8 39,12 85,11 35,-2 46,-9 95,-63 z m 550,53 c 0,-13 -53,-74 -65,-74 -18,0 -25,-23 -25,-85 0,-69 7,-85 36,-85 32,0 30,-20 -4,-53 -26,-25 -34,-27 -120,-27 -104,0 -106,4 -42,67 30,29 31,33 28,104 -3,68 -5,74 -25,77 -13,2 -23,6 -23,10 0,3 10,21 23,39 l 22,33 98,0 c 53,0 97,-3 97,-6 z m 250,1 c 0,-15 -48,-68 -68,-76 -21,-8 -23,-13 -20,-86 3,-77 3,-78 31,-81 35,-4 34,-21 -1,-55 -26,-25 -34,-27 -120,-27 -88,0 -92,1 -82,19 5,11 24,33 40,50 30,29 31,34 28,103 -3,67 -5,73 -25,76 -13,2 -23,7 -23,10 0,10 31,55 44,64 12,9 196,11 196,3 z"
       id="path3053"
       inkscape:connector-curvature="0" />
  </g>
  <path
     style="fill:#ffffff"
     d="m 37.288772,362.81074 c -0.16768,7.72733 -0.37104,14.11586 -0.4519,14.19672 -0.23605,0.23605 -28.1128994,0.25578 -30.0214094,0.0213 -1.24401,-0.15287 -1.80247,-0.34109 -1.97643,-0.66615 -0.59429,-1.11044 -0.82436,-5.28953 -0.95449,-17.33819 -0.1918,-17.75747 -0.12861,-17.99858 3.99531,-15.24473 1.82801,1.2207 3.7348194,3.43151 4.1418194,4.80214 0.15499,0.52195 0.38117,4.35515 0.50262,8.51821 0.12146,4.16307 0.30337,7.85787 0.40427,8.21067 0.49856,1.74337 1.95479,2.10226 2.56866,0.63304 0.51329,-1.22846 0.86138,-6.09017 0.89041,-12.43587 0.0242,-5.29065 0.27749,-9.61244 0.58117,-9.91612 0.2456,-0.2456 4.05968,2.33933 5.52581,3.74503 0.85266,0.81753 1.37033,1.56569 1.54014,2.2259 0.14068,0.54697 0.32811,3.53465 0.41653,6.63931 0.22003,7.7264 0.71614,10.83565 1.74484,10.9352 0.59538,0.0576 1.08435,-0.0824 1.25653,-0.3599 0.4264,-0.6871 0.74105,-5.1062 0.97222,-13.6543 0.24482,-9.05294 0.46083,-11.16138 1.14353,-11.16138 1.13301,0 8.10477,5.44072 8.05528,6.2863 -0.0165,0.28224 -0.16722,6.83553 -0.33491,14.56287 z"
     id="path3089"
     inkscape:connector-curvature="0" />
  <path
     style="fill:#ffffff"
     d="m 32.176106,327.16919 c -2.78714,0.0901 -8.2716,0.23957 -12.18771,0.33208 l -7.12019,0.16822 -0.0112,3.23314 c -0.0142,4.09388 -0.37067,8.46443 -0.71885,8.81261 -0.47231,0.47231 -1.79792,-0.31303 -3.75145,-2.22251 -2.85043,-2.78616 -3.72931,-4.28326 -4.0335,-6.87076 -0.49889,-4.2436 0.39052,-27.58141 1.09455,-28.72055 0.33914,-0.54875 2.74463,0.78342 4.6746,2.58881 2.30374,2.15503 2.53125,2.81047 2.68582,7.73742 l 0.1257,4.0068 3.23859,0.15958 c 1.78123,0.0878 7.25092,0.23603 12.15487,0.32946 l 8.91627,0.16989 0,5.05597 0,5.05597 -5.06752,0.16387 z"
     id="path3091"
     inkscape:connector-curvature="0" />
  <path
     style="fill:#ffffff"
     d="m 26.68785,298.59835 c -15.04636,-8e-4 -21.8061092,-0.22499 -22.3211392,-0.74001 -0.3586,-0.35861 -0.38169,-1.98643 -0.21869,-15.41759 0.17454,-14.38247 0.32551,-18.22546 0.73193,-18.63188 0.24856,-0.24856 2.27495,1.03513 5.2035902,3.29641 l 2.406749,1.85832 0.026,8.21067 c 0.0331,10.47408 0.17661,11.42911 1.66128,11.05648 1.092,-0.27407 1.39092,-1.43773 1.66997,-6.50083 0.13809,-2.50561 0.3647,-6.63397 0.50359,-9.17415 0.26621,-4.86919 0.57151,-6.41376 1.35009,-6.83044 0.7503,-0.40155 1.37009,-0.0542 3.30057,1.84962 2.95577,2.915 3.15585,3.65224 3.82375,14.08952 0.29376,4.59044 0.55453,5.74719 1.42408,6.31694 1.63459,1.07102 1.86658,-0.0342 2.05026,-9.76668 0.14133,-7.48849 0.45661,-12.98281 0.79569,-13.86643 0.21225,-0.55312 0.62272,-0.48746 2.22647,0.35616 2.00218,1.05321 4.6999,3.28329 5.16988,4.2737 0.62374,1.31443 0.90033,7.09639 0.90452,18.90847 l 0.004,10.71235 -10.71235,-6.3e-4 z"
     id="path3093"
     inkscape:connector-curvature="0" />
  <path
     style="fill:#ffffff"
     d="m 37.213128,201.29042 c -0.16822,2.43471 -0.38883,4.50972 -0.49024,4.61113 -0.10141,0.10142 -5.22957,0.28742 -11.39589,0.41333 -18.49852,0.37774 -20.70328,-0.045 -21.03395,-4.03246 -0.24843,-2.99575 1.09543,-5.19179 9.20408,-15.04063 4.08321,-4.95951 6.64807,-8.57557 6.64807,-9.37277 0,-0.90813 -1.52467,-1.14223 -8.92686,-1.37067 -4.71431,-0.14549 -6.8393,-0.30226 -7.05604,-0.52055 -0.32141,-0.32371 -0.36623,-6.48125 -0.0593,-8.15103 0.1483,-0.8069 0.16325,-0.81402 2.08838,-0.99442 2.75123,-0.25781 23.91017,0.0525 26.52428,0.38902 2.94397,0.37896 3.85222,0.85839 4.3161,2.2783 0.77709,2.37862 -0.33236,5.10521 -3.76146,9.24412 -4.70809,5.68268 -9.88117,12.21472 -10.80289,13.6408 -1.03115,1.59539 -1.6947,3.01112 -1.50173,3.20409 0.4185,0.41851 3.53076,0.67987 9.63533,0.80919 3.84554,0.0815 6.97527,0.21958 6.95494,0.30695 -0.0203,0.0874 -0.17458,2.15089 -0.34279,4.5856 l 0,0 z"
     id="path3095"
     inkscape:connector-curvature="0" />
  <path
     style="fill:#ffffff"
     d="m 30.510963,161.19901 c -3.84555,0.10291 -10.6867,0.13749 -15.20257,0.0769 -9.4948993,-0.12752 -9.8186393,-0.19011 -10.6394593,-2.05714 -1.13252,-2.57602 -0.88711,-6.9662 0.43795,-7.83442 1.0536,-0.69034 6.0403093,-0.86255 19.7592393,-0.68238 l 12.63673,0.16596 0,5.07201 0,5.07201 -6.99189,0.18711 z"
     id="path3097"
     inkscape:connector-curvature="0" />
  <path
     style="fill:#ffffff"
     d="m 25.162602,134.64219 -12.4104,0 -0.14813,5.4524 c -0.14905,5.4863 -0.34085,7.13229 -0.85089,7.30231 -0.38787,0.12929 -2.5882896,-1.57155 -5.4446596,-4.20852 l -2.43006,-2.24341 0.18082,-13.86374 c 0.17087,-13.1012 0.37203,-17.8839 0.7689,-18.28076 0.29832,-0.29832 2.77555,1.07934 4.70506,2.61663 2.6986996,2.15012 2.9555196,2.79934 3.1007496,7.83837 l 0.11591,4.02172 3.08653,0.16596 c 1.6976,0.0913 5.47636,0.16596 8.39725,0.16596 5.64942,0 11.57213,0.37326 12.32619,0.77682 0.69559,0.37226 1.01312,2.42468 1.01312,6.54843 l 0,3.70783 -12.41039,0 z"
     id="path3099"
     inkscape:connector-curvature="0" />
  <path
     style="fill:#ffffff"
     d="m 37.329673,83.791302 c -0.28064,1.13141 -1.18331,2.05101 -2.30491,2.34817 -0.50312,0.13328 -2.42495,0.341 -4.27074,0.46157 -4.8854,0.31914 -4.96939,0.37287 -15.0549,9.63113 -8.0772792,7.414738 -10.1633492,9.213448 -10.5415492,9.089448 -0.6462,-0.21187 -0.95775,-2.58871 -0.88208,-6.729388 0.0999,-5.46548 0.20272,-5.65184 6.0900702,-11.03521 3.261419,-2.98224 6.167719,-6.12027 6.169209,-6.66113 4e-4,-0.14547 -2.63628,-2.86241 -5.859289,-6.03762 -6.6896102,-6.59041 -6.3928702,-6.099 -6.6293502,-10.97838 -0.14261,-2.94258 0.1599,-5.79018 0.66922,-6.2995 0.46019,-0.46018 3.30941,1.78702 12.5884392,9.92856 5.93718,5.20936 7.85362,6.65228 9.83551,7.40535 1.15955,0.44059 5.7451,0.94144 8.81521,0.96281 1.07056,0.007 1.07529,0.0118 1.21064,1.09797 0.27789,2.23012 0.36872,5.99302 0.16452,6.81622 z"
     id="path3101"
     inkscape:connector-curvature="0" />
  <path
     style="fill:#ffffff"
     d="m 37.063166,57.345392 c -0.53984,2.30997 -1.48787,1.96681 -5.79566,-2.09789 -2.03647,-1.92155 -3.41016,-3.01365 -4.06076,-3.22836 -1.20569,-0.39792 -10.54969,-0.20687 -12.62966,0.25823 -1.47057,0.32882 -1.62552,0.50888 -2.09618,2.43569 -0.46079,1.88643 -0.6385,2.01429 -1.90332,1.36938 -0.5859497,-0.29877 -2.2663997,-1.34886 -3.7343197,-2.33354 l -2.66895,-1.79033 0.16649,-9.01268 c 0.17105,-9.25974 0.25988,-10.42389 0.79542,-10.42389 0.57975,0 2.75607,1.61709 4.8724397,3.62042 1.5325,1.45063 2.19045,2.27141 2.41105,3.00769 0.42597,1.42178 1.37975,1.80785 5.26823,2.13253 3.71122,0.30987 8.9218,-0.0328 10.14907,-0.66745 0.969,-0.50108 1.19732,-0.93291 1.43023,-2.70493 0.34178,-2.60034 1.3013,-2.91767 3.62998,-1.20054 1.63081,1.20254 3.41288,3.36315 3.95302,4.79271 0.42322,1.1201 0.59889,14.19138 0.21292,15.84296 l 0,0 z"
     id="path3103"
     inkscape:connector-curvature="0" />
  <path
     style="fill:#ffffff"
     d="m 37.063121,32.778592 c -0.34899,1.84224 -1.97469,1.10168 -6.25392,-2.84886 -2.90801,-2.68465 -3.59828,-3.05973 -5.94137,-3.22846 -2.67691,-0.19278 -9.9169,0.32014 -11.01903,0.78064 -0.80946,0.33821 -0.97293,0.56639 -1.34585,1.87864 -0.60079,2.11404 -0.88258,2.35256 -2.09714,1.77517 -1.2587901,-0.59841 -3.8530001,-2.4626 -4.7582201,-3.41924 -0.50662,-0.53538 -0.78213,-1.18337 -0.95515,-2.24649 -0.33842,-2.07928 -0.58217,-13.98688 -0.33098,-16.1687799 0.18372,-1.5959 0.2637,-1.7868 0.71757,-1.71278 1.39032,0.22672 5.9249501,4.2932199 7.0915501,6.3594499 1.16608,2.06531 1.4589,2.23727 4.01439,2.35749 1.22871,0.0578 4.25308,-0.0202 6.72081,-0.17333 5.1076,-0.31696 5.61926,-0.50853 5.97537,-2.23723 0.64357,-3.12411 1.07548,-3.6389 2.60557,-3.1055 1.14244,0.39825 4.41081,3.75011 5.07886,5.2086 0.54993,1.20058 0.57802,1.58772 0.6218,8.57001 0.0252,4.02195 -0.0307,7.71675 -0.12426,8.21067 l 0,0 z"
     id="path3105"
     inkscape:connector-curvature="0" />
  <path
     style="fill:#ffffff"
     d="m 28.979982,260.52853 -8.56736,0 -0.002,-7.8739 c -0.004,-14.69031 -0.14482,-19.17233 -0.71071,-22.56331 -0.43125,-2.58418 -1.13665,-3.9899 -2.20088,-4.38591 -1.09286,-0.40666 -2.545,-0.0807 -3.18461,0.7149 -0.91278,1.13536 -1.4001,3.27556 -1.66111,7.29525 -0.10612,1.63436 -0.19261,5.92593 -0.26049,12.92539 -0.0609,6.276 -0.0984,7.69098 -0.25537,9.62188 -0.14023,1.72526 -0.38027,2.90706 -0.63778,3.14011 -0.17496,0.15833 -0.43703,0.0979 -0.96898,-0.22355 -1.0722696,-0.64787 -2.6616796,-2.0756 -5.0276596,-4.51624 l -1.59928,-1.64974 0.0783,-5.91242 c 0.16805,-12.68692 0.38146,-17.32414 0.97908,-21.27536 0.29375,-1.94209 0.64859,-3.19668 1.2173,-4.30383 0.64202,-1.24988 1.36623,-2.25716 2.36439,-3.28853 2.5269896,-2.61108 5.8758996,-3.97988 9.0591496,-3.70276 1.9322,0.16822 3.15751,0.72149 4.89534,2.21043 0.24696,0.21159 1.5238,1.45361 2.83742,2.76003 1.44556,1.43764 2.41024,2.35086 2.44372,2.31336 0.0304,-0.0341 0.94637,-1.0867 2.03543,-2.33914 2.47673,-2.84832 3.62062,-4.10211 4.97428,-5.4522 1.16078,-1.1577 1.72997,-1.60845 1.89759,-1.50272 0.24164,0.15242 0.45233,1.07954 0.61113,2.68922 0.11564,1.1722 0.11385,7.25379 -0.002,8.17859 -0.33326,2.65092 -0.93272,3.70871 -4.73772,8.35993 -2.38408,2.9143 -3.12347,4.0373 -3.59716,5.4635 -0.39329,1.18412 -0.52728,2.53536 -0.52793,5.32411 -0.001,5.32285 0.47388,6.89113 2.30839,7.6194 0.68112,0.2704 1.34008,0.39184 3.20729,0.59105 1.18207,0.12612 1.74203,0.245 2.07606,0.44076 0.3356,0.19668 0.44153,0.3155 0.63662,0.71408 0.33556,0.6856 0.42277,1.40944 0.68391,5.67691 0.0702,1.14661 0.14463,2.27958 0.16546,2.51773 l 0.0379,0.43298 -8.56735,0 z"
     id="path3126"
     inkscape:connector-curvature="0" />
  <g
     style="fill:#000000;stroke:none"
     id="g3250"
     transform="matrix(0,-0.1,-0.1,0,41.654908,381.50107)">
    <path
       inkscape:connector-curvature="0"
       id="path3252"
       d="M 30,371 C 19,350 16,91 26,53 32,30 35,30 188,30 l 155,0 28,29 c 41,44 52,68 33,75 -9,3 -67,6 -130,6 -69,0 -114,4 -114,10 0,6 36,10 89,10 l 89,0 31,42 c 17,23 31,46 31,50 0,4 -55,8 -122,8 -67,0 -118,3 -115,6 4,4 43,6 88,5 l 81,-2 44,47 c 25,26 43,52 41,58 -2,7 -65,12 -190,14 -176,2 -187,1 -197,-17 z m 360,-9 c 0,-9 -12,-29 -27,-44 -26,-27 -31,-28 -119,-28 -70,0 -93,-3 -97,-14 -8,-21 14,-26 129,-26 57,0 104,-3 104,-6 0,-3 -12,-21 -26,-40 -26,-34 -27,-34 -108,-34 -83,0 -114,-9 -102,-29 5,-7 50,-11 126,-11 65,0 121,-4 124,-8 3,-5 -9,-25 -25,-46 L 338,39 192,42 45,45 42,199 c -1,86 2,158 7,165 6,7 65,11 175,12 143,1 166,-1 166,-14 z" />
    <path
       inkscape:connector-curvature="0"
       id="path3254"
       d="m 436,349 c -53,-57 -46,-74 29,-74 l 60,0 5,-120 5,-120 60,0 60,0 3,118 3,117 43,0 c 38,0 48,5 74,36 l 31,37 3,-154 3,-154 160,-2 160,-3 25,34 25,34 5,-31 c 5,-31 7,-32 58,-35 62,-4 82,8 82,49 0,29 0,29 63,29 58,0 65,-2 107,-40 45,-40 45,-40 128,-40 99,0 104,10 36,67 l -47,39 28,26 c 23,21 29,37 33,82 4,54 3,58 -32,91 -21,19 -46,35 -56,35 -10,0 -22,5 -25,10 -4,6 -64,10 -149,10 l -142,0 -25,-27 c -77,-86 -72,-90 133,-92 89,-1 164,-4 166,-6 3,-2 2,-11 -1,-20 -5,-13 -31,-15 -166,-15 -88,0 -166,-3 -175,-6 -11,-4 -16,-19 -16,-45 l 0,-39 -120,0 c -73,0 -120,4 -120,10 0,6 35,10 84,10 l 85,0 30,37 c 50,60 46,63 -84,63 -63,0 -115,3 -115,8 0,4 41,7 91,7 84,0 91,2 110,25 40,50 51,69 44,80 -4,6 -126,10 -364,10 l -359,0 -36,-41 z m 362,13 c 1,-5 -9,-24 -23,-41 -23,-27 -33,-31 -76,-31 l -48,0 -3,-122 -3,-123 -50,0 -50,0 -3,123 -3,122 -58,0 c -32,0 -60,3 -64,6 -9,10 53,73 77,76 44,8 301,-2 304,-10 z m 379,4 c 3,-2 -8,-21 -24,-40 l -28,-36 -98,0 c -88,0 -98,-2 -95,-17 3,-16 18,-18 116,-21 123,-3 132,-9 84,-55 -24,-23 -36,-26 -112,-29 -71,-3 -85,-6 -88,-21 -3,-15 8,-17 117,-17 66,0 122,-4 125,-9 6,-8 -28,-59 -49,-73 -5,-4 -74,-8 -152,-8 l -143,0 0,163 c 0,90 2,166 4,168 6,6 337,1 343,-5 z m 415,-10 c 46,-20 78,-64 78,-110 0,-27 -8,-44 -37,-72 l -37,-37 47,-41 c 26,-23 47,-44 47,-48 0,-5 -30,-8 -66,-8 -65,0 -69,2 -122,45 -50,42 -59,45 -111,45 -69,0 -79,-6 -83,-50 -3,-34 -4,-35 -50,-38 l -48,-3 0,85 0,86 149,0 c 161,0 201,8 201,39 0,34 -32,41 -189,41 -103,0 -151,3 -151,11 0,6 15,25 33,43 l 32,31 136,-2 c 93,-2 146,-7 171,-17 z" />
    <path
       inkscape:connector-curvature="0"
       id="path3256"
       d="m 1756,371 c -15,-17 -18,-40 -17,-163 0,-79 0,-151 1,-161 0,-16 8,-18 63,-15 l 62,3 5,79 5,78 35,-31 c 19,-17 60,-50 90,-74 30,-23 57,-45 58,-49 2,-5 21,-8 41,-8 65,0 71,15 71,187 0,174 -1,176 -82,171 l -53,-3 -5,-82 -5,-82 -55,50 c -30,27 -67,57 -82,66 -16,10 -28,21 -28,25 0,4 -7,8 -15,8 -8,0 -15,5 -15,10 0,18 -56,11 -74,-9 z m 387,0 c 4,-1 6,-71 5,-157 -3,-131 -6,-159 -19,-167 -20,-13 -58,-3 -84,20 -11,10 -32,27 -46,38 -14,11 -50,39 -78,63 -29,23 -57,40 -62,36 -5,-3 -9,-41 -9,-85 l 0,-80 -47,3 -48,3 -3,149 c -3,161 1,176 48,176 29,0 42,-9 154,-102 38,-32 75,-58 83,-58 10,0 13,19 13,78 0,43 2,81 5,84 4,4 55,3 88,-1 z" />
    <path
       inkscape:connector-curvature="0"
       id="path3258"
       d="m 2194,377 c -2,-7 -3,-87 -2,-177 l 3,-165 60,0 60,0 2,100 c 4,143 3,141 60,139 26,-1 56,-2 65,-3 15,-1 18,-16 20,-118 l 3,-118 60,0 60,0 3,118 3,117 38,0 c 42,0 86,28 96,60 8,27 29,25 48,-3 8,-13 49,-58 90,-100 75,-76 76,-78 79,-135 l 3,-57 60,0 60,0 6,56 c 3,31 12,65 20,76 29,41 152,173 157,168 3,-2 -1,-11 -8,-20 -18,-21 -5,-45 25,-45 24,0 25,-2 25,-64 0,-51 -4,-68 -18,-78 -25,-19 -62,-68 -62,-84 0,-11 23,-14 103,-14 l 104,0 31,35 c 39,43 41,63 5,67 -27,3 -28,6 -31,65 -3,58 -1,64 28,91 16,16 30,34 30,41 0,6 5,11 10,11 7,0 7,-7 0,-21 -16,-29 -5,-49 25,-49 24,0 25,-2 25,-65 0,-46 -4,-67 -14,-71 -18,-7 -80,-94 -72,-101 3,-4 52,-6 108,-4 101,2 103,2 135,34 43,42 43,65 1,69 l -33,3 -3,68 c -2,53 0,67 12,67 17,0 73,68 78,95 3,19 -4,20 -96,23 -97,3 -100,2 -128,-25 l -30,-28 4,25 3,25 -100,3 c -90,2 -103,0 -123,-18 l -22,-21 0,21 c 0,18 -6,20 -69,20 l -70,0 -58,-65 -57,-66 -61,66 -60,65 -247,0 -246,0 -36,-42 c -35,-42 -36,-42 -36,-16 0,51 -8,58 -66,58 -35,0 -56,-5 -60,-13 z m 111,-19 c 3,-13 4,-88 3,-168 l -3,-145 -50,0 -50,0 -3,154 c -2,104 1,158 9,167 6,8 29,14 50,14 32,0 40,-4 44,-22 z m 421,10 c 3,-4 -6,-23 -21,-42 -25,-33 -32,-36 -76,-36 l -49,0 -1,-102 c -1,-57 -2,-107 -4,-113 -1,-5 -3,-16 -3,-22 -1,-9 -19,-13 -52,-13 l -50,0 0,125 0,125 -65,0 c -36,0 -65,4 -65,8 0,4 15,24 33,43 l 32,34 157,0 c 87,-1 160,-4 164,-7 z m 214,-57 c 30,-34 59,-61 65,-61 5,0 34,28 65,62 56,62 57,62 113,63 35,1 57,-3 57,-9 0,-6 -40,-56 -90,-111 -87,-98 -89,-101 -92,-155 l -3,-55 -44,-3 c -52,-4 -61,5 -61,68 0,43 -5,50 -95,147 -52,55 -95,104 -95,106 0,8 39,12 85,11 35,-2 46,-9 95,-63 z m 550,53 c 0,-13 -53,-74 -65,-74 -18,0 -25,-23 -25,-85 0,-69 7,-85 36,-85 32,0 30,-20 -4,-53 -26,-25 -34,-27 -120,-27 -104,0 -106,4 -42,67 30,29 31,33 28,104 -3,68 -5,74 -25,77 -13,2 -23,6 -23,10 0,3 10,21 23,39 l 22,33 98,0 c 53,0 97,-3 97,-6 z m 250,1 c 0,-15 -48,-68 -68,-76 -21,-8 -23,-13 -20,-86 3,-77 3,-78 31,-81 35,-4 34,-21 -1,-55 -26,-25 -34,-27 -120,-27 -88,0 -92,1 -82,19 5,11 24,33 40,50 30,29 31,34 28,103 -3,67 -5,73 -25,76 -13,2 -23,7 -23,10 0,10 31,55 44,64 12,9 196,11 196,3 z" />
  </g>
  <path
     inkscape:connector-curvature="0"
     id="path3260"
     d="m 37.288772,362.81074 c -0.16768,7.72733 -0.37104,14.11586 -0.4519,14.19672 -0.23605,0.23605 -28.1128994,0.25578 -30.0214094,0.0213 -1.24401,-0.15287 -1.80247,-0.34109 -1.97643,-0.66615 -0.59429,-1.11044 -0.82436,-5.28953 -0.95449,-17.33819 -0.1918,-17.75747 -0.12861,-17.99858 3.99531,-15.24473 1.82801,1.2207 3.7348194,3.43151 4.1418194,4.80214 0.15499,0.52195 0.38117,4.35515 0.50262,8.51821 0.12146,4.16307 0.30337,7.85787 0.40427,8.21067 0.49856,1.74337 1.95479,2.10226 2.56866,0.63304 0.51329,-1.22846 0.86138,-6.09017 0.89041,-12.43587 0.0242,-5.29065 0.27749,-9.61244 0.58117,-9.91612 0.2456,-0.2456 4.05968,2.33933 5.52581,3.74503 0.85266,0.81753 1.37033,1.56569 1.54014,2.2259 0.14068,0.54697 0.32811,3.53465 0.41653,6.63931 0.22003,7.7264 0.71614,10.83565 1.74484,10.9352 0.59538,0.0576 1.08435,-0.0824 1.25653,-0.3599 0.4264,-0.6871 0.74105,-5.1062 0.97222,-13.6543 0.24482,-9.05294 0.46083,-11.16138 1.14353,-11.16138 1.13301,0 8.10477,5.44072 8.05528,6.2863 -0.0165,0.28224 -0.16722,6.83553 -0.33491,14.56287 z"
     style="fill:#ffffff" />
  <path
     inkscape:connector-curvature="0"
     id="path3262"
     d="m 32.176106,327.16919 c -2.78714,0.0901 -8.2716,0.23957 -12.18771,0.33208 l -7.12019,0.16822 -0.0112,3.23314 c -0.0142,4.09388 -0.37067,8.46443 -0.71885,8.81261 -0.47231,0.47231 -1.79792,-0.31303 -3.75145,-2.22251 -2.85043,-2.78616 -3.72931,-4.28326 -4.0335,-6.87076 -0.49889,-4.2436 0.39052,-27.58141 1.09455,-28.72055 0.33914,-0.54875 2.74463,0.78342 4.6746,2.58881 2.30374,2.15503 2.53125,2.81047 2.68582,7.73742 l 0.1257,4.0068 3.23859,0.15958 c 1.78123,0.0878 7.25092,0.23603 12.15487,0.32946 l 8.91627,0.16989 0,5.05597 0,5.05597 -5.06752,0.16387 z"
     style="fill:#ffffff" />
  <path
     inkscape:connector-curvature="0"
     id="path3264"
     d="m 26.68785,298.59835 c -15.04636,-8e-4 -21.8061092,-0.22499 -22.3211392,-0.74001 -0.3586,-0.35861 -0.38169,-1.98643 -0.21869,-15.41759 0.17454,-14.38247 0.32551,-18.22546 0.73193,-18.63188 0.24856,-0.24856 2.27495,1.03513 5.2035902,3.29641 l 2.406749,1.85832 0.026,8.21067 c 0.0331,10.47408 0.17661,11.42911 1.66128,11.05648 1.092,-0.27407 1.39092,-1.43773 1.66997,-6.50083 0.13809,-2.50561 0.3647,-6.63397 0.50359,-9.17415 0.26621,-4.86919 0.57151,-6.41376 1.35009,-6.83044 0.7503,-0.40155 1.37009,-0.0542 3.30057,1.84962 2.95577,2.915 3.15585,3.65224 3.82375,14.08952 0.29376,4.59044 0.55453,5.74719 1.42408,6.31694 1.63459,1.07102 1.86658,-0.0342 2.05026,-9.76668 0.14133,-7.48849 0.45661,-12.98281 0.79569,-13.86643 0.21225,-0.55312 0.62272,-0.48746 2.22647,0.35616 2.00218,1.05321 4.6999,3.28329 5.16988,4.2737 0.62374,1.31443 0.90033,7.09639 0.90452,18.90847 l 0.004,10.71235 -10.71235,-6.3e-4 z"
     style="fill:#ffffff" />
  <path
     inkscape:connector-curvature="0"
     id="path3266"
     d="m 37.213128,201.29042 c -0.16822,2.43471 -0.38883,4.50972 -0.49024,4.61113 -0.10141,0.10142 -5.22957,0.28742 -11.39589,0.41333 -18.49852,0.37774 -20.70328,-0.045 -21.03395,-4.03246 -0.24843,-2.99575 1.09543,-5.19179 9.20408,-15.04063 4.08321,-4.95951 6.64807,-8.57557 6.64807,-9.37277 0,-0.90813 -1.52467,-1.14223 -8.92686,-1.37067 -4.71431,-0.14549 -6.8393,-0.30226 -7.05604,-0.52055 -0.32141,-0.32371 -0.36623,-6.48125 -0.0593,-8.15103 0.1483,-0.8069 0.16325,-0.81402 2.08838,-0.99442 2.75123,-0.25781 23.91017,0.0525 26.52428,0.38902 2.94397,0.37896 3.85222,0.85839 4.3161,2.2783 0.77709,2.37862 -0.33236,5.10521 -3.76146,9.24412 -4.70809,5.68268 -9.88117,12.21472 -10.80289,13.6408 -1.03115,1.59539 -1.6947,3.01112 -1.50173,3.20409 0.4185,0.41851 3.53076,0.67987 9.63533,0.80919 3.84554,0.0815 6.97527,0.21958 6.95494,0.30695 -0.0203,0.0874 -0.17458,2.15089 -0.34279,4.5856 l 0,0 z"
     style="fill:#ffffff" />
  <path
     inkscape:connector-curvature="0"
     id="path3268"
     d="m 30.510963,161.19901 c -3.84555,0.10291 -10.6867,0.13749 -15.20257,0.0769 -9.4948993,-0.12752 -9.8186393,-0.19011 -10.6394593,-2.05714 -1.13252,-2.57602 -0.88711,-6.9662 0.43795,-7.83442 1.0536,-0.69034 6.0403093,-0.86255 19.7592393,-0.68238 l 12.63673,0.16596 0,5.07201 0,5.07201 -6.99189,0.18711 z"
     style="fill:#ffffff" />
  <path
     inkscape:connector-curvature="0"
     id="path3270"
     d="m 25.162602,134.64219 -12.4104,0 -0.14813,5.4524 c -0.14905,5.4863 -0.34085,7.13229 -0.85089,7.30231 -0.38787,0.12929 -2.5882896,-1.57155 -5.4446596,-4.20852 l -2.43006,-2.24341 0.18082,-13.86374 c 0.17087,-13.1012 0.37203,-17.8839 0.7689,-18.28076 0.29832,-0.29832 2.77555,1.07934 4.70506,2.61663 2.6986996,2.15012 2.9555196,2.79934 3.1007496,7.83837 l 0.11591,4.02172 3.08653,0.16596 c 1.6976,0.0913 5.47636,0.16596 8.39725,0.16596 5.64942,0 11.57213,0.37326 12.32619,0.77682 0.69559,0.37226 1.01312,2.42468 1.01312,6.54843 l 0,3.70783 -12.41039,0 z"
     style="fill:#ffffff" />
  <path
     inkscape:connector-curvature="0"
     id="path3272"
     d="m 37.329673,83.791302 c -0.28064,1.13141 -1.18331,2.05101 -2.30491,2.34817 -0.50312,0.13328 -2.42495,0.341 -4.27074,0.46157 -4.8854,0.31914 -4.96939,0.37287 -15.0549,9.63113 -8.0772792,7.414738 -10.1633492,9.213448 -10.5415492,9.089448 -0.6462,-0.21187 -0.95775,-2.58871 -0.88208,-6.729388 0.0999,-5.46548 0.20272,-5.65184 6.0900702,-11.03521 3.261419,-2.98224 6.167719,-6.12027 6.169209,-6.66113 4e-4,-0.14547 -2.63628,-2.86241 -5.859289,-6.03762 -6.6896102,-6.59041 -6.3928702,-6.099 -6.6293502,-10.97838 -0.14261,-2.94258 0.1599,-5.79018 0.66922,-6.2995 0.46019,-0.46018 3.30941,1.78702 12.5884392,9.92856 5.93718,5.20936 7.85362,6.65228 9.83551,7.40535 1.15955,0.44059 5.7451,0.94144 8.81521,0.96281 1.07056,0.007 1.07529,0.0118 1.21064,1.09797 0.27789,2.23012 0.36872,5.99302 0.16452,6.81622 z"
     style="fill:#ffffff" />
  <path
     inkscape:connector-curvature="0"
     id="path3274"
     d="m 37.063166,57.345392 c -0.53984,2.30997 -1.48787,1.96681 -5.79566,-2.09789 -2.03647,-1.92155 -3.41016,-3.01365 -4.06076,-3.22836 -1.20569,-0.39792 -10.54969,-0.20687 -12.62966,0.25823 -1.47057,0.32882 -1.62552,0.50888 -2.09618,2.43569 -0.46079,1.88643 -0.6385,2.01429 -1.90332,1.36938 -0.5859497,-0.29877 -2.2663997,-1.34886 -3.7343197,-2.33354 l -2.66895,-1.79033 0.16649,-9.01268 c 0.17105,-9.25974 0.25988,-10.42389 0.79542,-10.42389 0.57975,0 2.75607,1.61709 4.8724397,3.62042 1.5325,1.45063 2.19045,2.27141 2.41105,3.00769 0.42597,1.42178 1.37975,1.80785 5.26823,2.13253 3.71122,0.30987 8.9218,-0.0328 10.14907,-0.66745 0.969,-0.50108 1.19732,-0.93291 1.43023,-2.70493 0.34178,-2.60034 1.3013,-2.91767 3.62998,-1.20054 1.63081,1.20254 3.41288,3.36315 3.95302,4.79271 0.42322,1.1201 0.59889,14.19138 0.21292,15.84296 l 0,0 z"
     style="fill:#ffffff" />
  <path
     inkscape:connector-curvature="0"
     id="path3276"
     d="m 37.063121,32.778592 c -0.34899,1.84224 -1.97469,1.10168 -6.25392,-2.84886 -2.90801,-2.68465 -3.59828,-3.05973 -5.94137,-3.22846 -2.67691,-0.19278 -9.9169,0.32014 -11.01903,0.78064 -0.80946,0.33821 -0.97293,0.56639 -1.34585,1.87864 -0.60079,2.11404 -0.88258,2.35256 -2.09714,1.77517 -1.2587901,-0.59841 -3.8530001,-2.4626 -4.7582201,-3.41924 -0.50662,-0.53538 -0.78213,-1.18337 -0.95515,-2.24649 -0.33842,-2.07928 -0.58217,-13.98688 -0.33098,-16.1687799 0.18372,-1.5959 0.2637,-1.7868 0.71757,-1.71278 1.39032,0.22672 5.9249501,4.2932199 7.0915501,6.3594499 1.16608,2.06531 1.4589,2.23727 4.01439,2.35749 1.22871,0.0578 4.25308,-0.0202 6.72081,-0.17333 5.1076,-0.31696 5.61926,-0.50853 5.97537,-2.23723 0.64357,-3.12411 1.07548,-3.6389 2.60557,-3.1055 1.14244,0.39825 4.41081,3.75011 5.07886,5.2086 0.54993,1.20058 0.57802,1.58772 0.6218,8.57001 0.0252,4.02195 -0.0307,7.71675 -0.12426,8.21067 l 0,0 z"
     style="fill:#ffffff" />
  <path
     inkscape:connector-curvature="0"
     id="path3278"
     d="m 28.979982,260.52853 -8.56736,0 -0.002,-7.8739 c -0.004,-14.69031 -0.14482,-19.17233 -0.71071,-22.56331 -0.43125,-2.58418 -1.13665,-3.9899 -2.20088,-4.38591 -1.09286,-0.40666 -2.545,-0.0807 -3.18461,0.7149 -0.91278,1.13536 -1.4001,3.27556 -1.66111,7.29525 -0.10612,1.63436 -0.19261,5.92593 -0.26049,12.92539 -0.0609,6.276 -0.0984,7.69098 -0.25537,9.62188 -0.14023,1.72526 -0.38027,2.90706 -0.63778,3.14011 -0.17496,0.15833 -0.43703,0.0979 -0.96898,-0.22355 -1.0722696,-0.64787 -2.6616796,-2.0756 -5.0276596,-4.51624 l -1.59928,-1.64974 0.0783,-5.91242 c 0.16805,-12.68692 0.38146,-17.32414 0.97908,-21.27536 0.29375,-1.94209 0.64859,-3.19668 1.2173,-4.30383 0.64202,-1.24988 1.36623,-2.25716 2.36439,-3.28853 2.5269896,-2.61108 5.8758996,-3.97988 9.0591496,-3.70276 1.9322,0.16822 3.15751,0.72149 4.89534,2.21043 0.24696,0.21159 1.5238,1.45361 2.83742,2.76003 1.44556,1.43764 2.41024,2.35086 2.44372,2.31336 0.0304,-0.0341 0.94637,-1.0867 2.03543,-2.33914 2.47673,-2.84832 3.62062,-4.10211 4.97428,-5.4522 1.16078,-1.1577 1.72997,-1.60845 1.89759,-1.50272 0.24164,0.15242 0.45233,1.07954 0.61113,2.68922 0.11564,1.1722 0.11385,7.25379 -0.002,8.17859 -0.33326,2.65092 -0.93272,3.70871 -4.73772,8.35993 -2.38408,2.9143 -3.12347,4.0373 -3.59716,5.4635 -0.39329,1.18412 -0.52728,2.53536 -0.52793,5.32411 -0.001,5.32285 0.47388,6.89113 2.30839,7.6194 0.68112,0.2704 1.34008,0.39184 3.20729,0.59105 1.18207,0.12612 1.74203,0.245 2.07606,0.44076 0.3356,0.19668 0.44153,0.3155 0.63662,0.71408 0.33556,0.6856 0.42277,1.40944 0.68391,5.67691 0.0702,1.14661 0.14463,2.27958 0.16546,2.51773 l 0.0379,0.43298 -8.56735,0 z"
     style="fill:#ffffff" />
</svg>
