<?xml version="1.0" encoding="UTF-8" standalone="no"?>
<svg
   xmlns:dc="http://purl.org/dc/elements/1.1/"
   xmlns:cc="http://creativecommons.org/ns#"
   xmlns:rdf="http://www.w3.org/1999/02/22-rdf-syntax-ns#"
   xmlns:svg="http://www.w3.org/2000/svg"
   xmlns="http://www.w3.org/2000/svg"
   xmlns:sodipodi="http://sodipodi.sourceforge.net/DTD/sodipodi-0.dtd"
   xmlns:inkscape="http://www.inkscape.org/namespaces/inkscape"
   version="1.0"
   width="466.5773"
   height="51.545326"
   viewBox="0 0 373.26185 41.236262"
   preserveAspectRatio="xMidYMid meet"
   id="svg3041"
   inkscape:version="0.92.5 (2060ec1f9f, 2020-04-08)"
   sodipodi:docname="EternityII_Title_90.svg">
  <defs
     id="defs3057" />
  <sodipodi:namedview
     pagecolor="#ffffff"
     bordercolor="#666666"
     borderopacity="1"
     objecttolerance="10"
     gridtolerance="10"
     guidetolerance="10"
     inkscape:pageopacity="0"
     inkscape:pageshadow="2"
     inkscape:window-width="1848"
     inkscape:window-height="1016"
     id="namedview3055"
     showgrid="true"
     inkscape:zoom="1.1023423"
     inkscape:cx="-50.334004"
     inkscape:cy="-42.145779"
     inkscape:window-x="72"
     inkscape:window-y="27"
     inkscape:window-maximized="1"
     inkscape:current-layer="svg3041"
     inkscape:snap-bbox="false" />
  <metadata
     id="metadata3043">
Created by potrace 1.13, written by Peter Selinger 2001-2015
<rdf:RDF>
  <cc:Work
     rdf:about="">
    <dc:format>image/svg+xml</dc:format>
    <dc:type
       rdf:resource="http://purl.org/dc/dcmitype/StillImage" />
    <dc:title />
  </cc:Work>
</rdf:RDF>
</metadata>
  <g
     transform="matrix(0.1,0,0,-0.1,-1.9909061,44.0578)"
     id="g3045"
     style="fill:#000000;stroke:none">
    <path
       d="M 30,371 C 19,350 16,91 26,53 32,30 35,30 188,30 h 155 l 28,29 c 41,44 52,68 33,75 -9,3 -67,6 -130,6 -69,0 -114,4 -114,10 0,6 36,10 89,10 h 89 l 31,42 c 17,23 31,46 31,50 0,4 -55,8 -122,8 -67,0 -118,3 -115,6 4,4 43,6 88,5 l 81,-2 44,47 c 25,26 43,52 41,58 -2,7 -65,12 -190,14 -176,2 -187,1 -197,-17 z m 360,-9 c 0,-9 -12,-29 -27,-44 -26,-27 -31,-28 -119,-28 -70,0 -93,-3 -97,-14 -8,-21 14,-26 129,-26 57,0 104,-3 104,-6 0,-3 -12,-21 -26,-40 -26,-34 -27,-34 -108,-34 -83,0 -114,-9 -102,-29 5,-7 50,-11 126,-11 65,0 121,-4 124,-8 3,-5 -9,-25 -25,-46 L 338,39 192,42 45,45 42,199 c -1,86 2,158 7,165 6,7 65,11 175,12 143,1 166,-1 166,-14 z"
       id="path3047"
       inkscape:connector-curvature="0" />
    <path
       d="m 436,349 c -53,-57 -46,-74 29,-74 h 60 l 5,-120 5,-120 h 60 60 l 3,118 3,117 h 43 c 38,0 48,5 74,36 l 31,37 3,-154 3,-154 160,-2 160,-3 25,34 25,34 5,-31 c 5,-31 7,-32 58,-35 62,-4 82,8 82,49 0,29 0,29 63,29 58,0 65,-2 107,-40 45,-40 45,-40 128,-40 99,0 104,10 36,67 l -47,39 28,26 c 23,21 29,37 33,82 4,54 3,58 -32,91 -21,19 -46,35 -56,35 -10,0 -22,5 -25,10 -4,6 -64,10 -149,10 h -142 l -25,-27 c -77,-86 -72,-90 133,-92 89,-1 164,-4 166,-6 3,-2 2,-11 -1,-20 -5,-13 -31,-15 -166,-15 -88,0 -166,-3 -175,-6 -11,-4 -16,-19 -16,-45 v -39 h -120 c -73,0 -120,4 -120,10 0,6 35,10 84,10 h 85 l 30,37 c 50,60 46,63 -84,63 -63,0 -115,3 -115,8 0,4 41,7 91,7 84,0 91,2 110,25 40,50 51,69 44,80 -4,6 -126,10 -364,10 H 472 Z m 362,13 c 1,-5 -9,-24 -23,-41 -23,-27 -33,-31 -76,-31 H 651 L 648,168 645,45 h -50 -50 l -3,123 -3,122 h -58 c -32,0 -60,3 -64,6 -9,10 53,73 77,76 44,8 301,-2 304,-10 z m 379,4 c 3,-2 -8,-21 -24,-40 l -28,-36 h -98 c -88,0 -98,-2 -95,-17 3,-16 18,-18 116,-21 123,-3 132,-9 84,-55 -24,-23 -36,-26 -112,-29 -71,-3 -85,-6 -88,-21 -3,-15 8,-17 117,-17 66,0 122,-4 125,-9 6,-8 -28,-59 -49,-73 -5,-4 -74,-8 -152,-8 H 830 v 163 c 0,90 2,166 4,168 6,6 337,1 343,-5 z m 415,-10 c 46,-20 78,-64 78,-110 0,-27 -8,-44 -37,-72 l -37,-37 47,-41 c 26,-23 47,-44 47,-48 0,-5 -30,-8 -66,-8 -65,0 -69,2 -122,45 -50,42 -59,45 -111,45 -69,0 -79,-6 -83,-50 -3,-34 -4,-35 -50,-38 l -48,-3 v 85 86 h 149 c 161,0 201,8 201,39 0,34 -32,41 -189,41 -103,0 -151,3 -151,11 0,6 15,25 33,43 l 32,31 136,-2 c 93,-2 146,-7 171,-17 z"
       id="path3049"
       inkscape:connector-curvature="0" />
    <path
       d="m 1756,371 c -15,-17 -18,-40 -17,-163 0,-79 0,-151 1,-161 0,-16 8,-18 63,-15 l 62,3 5,79 5,78 35,-31 c 19,-17 60,-50 90,-74 30,-23 57,-45 58,-49 2,-5 21,-8 41,-8 65,0 71,15 71,187 0,174 -1,176 -82,171 l -53,-3 -5,-82 -5,-82 -55,50 c -30,27 -67,57 -82,66 -16,10 -28,21 -28,25 0,4 -7,8 -15,8 -8,0 -15,5 -15,10 0,18 -56,11 -74,-9 z m 387,0 c 4,-1 6,-71 5,-157 -3,-131 -6,-159 -19,-167 -20,-13 -58,-3 -84,20 -11,10 -32,27 -46,38 -14,11 -50,39 -78,63 -29,23 -57,40 -62,36 -5,-3 -9,-41 -9,-85 V 39 l -47,3 -48,3 -3,149 c -3,161 1,176 48,176 29,0 42,-9 154,-102 38,-32 75,-58 83,-58 10,0 13,19 13,78 0,43 2,81 5,84 4,4 55,3 88,-1 z"
       id="path3051"
       inkscape:connector-curvature="0" />
    <path
       d="m 2194,377 c -2,-7 -3,-87 -2,-177 l 3,-165 h 60 60 l 2,100 c 4,143 3,141 60,139 26,-1 56,-2 65,-3 15,-1 18,-16 20,-118 l 3,-118 h 60 60 l 3,118 3,117 h 38 c 42,0 86,28 96,60 8,27 29,25 48,-3 8,-13 49,-58 90,-100 75,-76 76,-78 79,-135 l 3,-57 h 60 60 l 6,56 c 3,31 12,65 20,76 29,41 152,173 157,168 3,-2 -1,-11 -8,-20 -18,-21 -5,-45 25,-45 24,0 25,-2 25,-64 0,-51 -4,-68 -18,-78 -25,-19 -62,-68 -62,-84 0,-11 23,-14 103,-14 h 104 l 31,35 c 39,43 41,63 5,67 -27,3 -28,6 -31,65 -3,58 -1,64 28,91 16,16 30,34 30,41 0,6 5,11 10,11 7,0 7,-7 0,-21 -16,-29 -5,-49 25,-49 24,0 25,-2 25,-65 0,-46 -4,-67 -14,-71 -18,-7 -80,-94 -72,-101 3,-4 52,-6 108,-4 101,2 103,2 135,34 43,42 43,65 1,69 l -33,3 -3,68 c -2,53 0,67 12,67 17,0 73,68 78,95 3,19 -4,20 -96,23 -97,3 -100,2 -128,-25 l -30,-28 4,25 3,25 -100,3 c -90,2 -103,0 -123,-18 l -22,-21 v 21 c 0,18 -6,20 -69,20 h -70 l -58,-65 -57,-66 -61,66 -60,65 h -247 -246 l -36,-42 c -35,-42 -36,-42 -36,-16 0,51 -8,58 -66,58 -35,0 -56,-5 -60,-13 z m 111,-19 c 3,-13 4,-88 3,-168 l -3,-145 h -50 -50 l -3,154 c -2,104 1,158 9,167 6,8 29,14 50,14 32,0 40,-4 44,-22 z m 421,10 c 3,-4 -6,-23 -21,-42 -25,-33 -32,-36 -76,-36 h -49 l -1,-102 c -1,-57 -2,-107 -4,-113 -1,-5 -3,-16 -3,-22 -1,-9 -19,-13 -52,-13 h -50 v 125 125 h -65 c -36,0 -65,4 -65,8 0,4 15,24 33,43 l 32,34 h 157 c 87,-1 160,-4 164,-7 z m 214,-57 c 30,-34 59,-61 65,-61 5,0 34,28 65,62 56,62 57,62 113,63 35,1 57,-3 57,-9 0,-6 -40,-56 -90,-111 -87,-98 -89,-101 -92,-155 l -3,-55 -44,-3 c -52,-4 -61,5 -61,68 0,43 -5,50 -95,147 -52,55 -95,104 -95,106 0,8 39,12 85,11 35,-2 46,-9 95,-63 z m 550,53 c 0,-13 -53,-74 -65,-74 -18,0 -25,-23 -25,-85 0,-69 7,-85 36,-85 32,0 30,-20 -4,-53 -26,-25 -34,-27 -120,-27 -104,0 -106,4 -42,67 30,29 31,33 28,104 -3,68 -5,74 -25,77 -13,2 -23,6 -23,10 0,3 10,21 23,39 l 22,33 h 98 c 53,0 97,-3 97,-6 z m 250,1 c 0,-15 -48,-68 -68,-76 -21,-8 -23,-13 -20,-86 3,-77 3,-78 31,-81 35,-4 34,-21 -1,-55 -26,-25 -34,-27 -120,-27 -88,0 -92,1 -82,19 5,11 24,33 40,50 30,29 31,34 28,103 -3,67 -5,73 -25,76 -13,2 -23,7 -23,10 0,10 31,55 44,64 12,9 196,11 196,3 z"
       id="path3053"
       inkscape:connector-curvature="0" />
  </g>
  <path
     style="fill:#ffffff"
     d="m -160.73266,97.70709 c -7.72733,-0.16768 -14.11586,-0.37104 -14.19672,-0.4519 -0.23605,-0.23605 -0.25578,-28.1129 -0.0213,-30.02141 0.15287,-1.24401 0.34109,-1.80247 0.66615,-1.97643 1.11044,-0.59429 5.28953,-0.82436 17.33819,-0.95449 17.75747,-0.1918 17.99858,-0.12861 15.24473,3.99531 -1.2207,1.82801 -3.43151,3.73482 -4.80214,4.14182 -0.52195,0.15499 -4.35515,0.38117 -8.51821,0.50262 -4.16307,0.12146 -7.85787,0.30337 -8.21067,0.40427 -1.74337,0.49856 -2.10226,1.95479 -0.63304,2.56866 1.22846,0.51329 6.09017,0.86138 12.43587,0.89041 5.29065,0.0242 9.61244,0.27749 9.91612,0.58117 0.2456,0.2456 -2.33933,4.05968 -3.74503,5.52581 -0.81753,0.85266 -1.56569,1.37033 -2.2259,1.54014 -0.54697,0.14068 -3.53465,0.32811 -6.63931,0.41653 -7.7264,0.22003 -10.83565,0.71614 -10.9352,1.74484 -0.0576,0.59538 0.0824,1.08435 0.3599,1.25653 0.6871,0.4264 5.1062,0.74105 13.6543,0.97222 9.05294,0.24482 11.16138,0.46083 11.16138,1.14353 0,1.13301 -5.44072,8.10477 -6.2863,8.05528 -0.28224,-0.0165 -6.83553,-0.16722 -14.56287,-0.33491 z"
     id="path3089"
     inkscape:connector-curvature="0" />
  <path
     style="fill:#ffffff"
     d="m -163.8565,53.82904 c -0.0901,-2.78714 -0.23957,-8.2716 -0.33208,-12.18771 l -0.16822,-7.12019 -3.23314,-0.0112 c -4.09388,-0.0142 -8.46443,-0.37067 -8.81261,-0.71885 -0.47231,-0.47231 0.31303,-1.79792 2.22251,-3.75145 2.78616,-2.85043 4.28326,-3.72931 6.87076,-4.0335 4.2436,-0.49889 27.58141,0.39052 28.72055,1.09455 0.54875,0.33914 -0.78342,2.74463 -2.58881,4.6746 -2.15503,2.30374 -2.81047,2.53125 -7.73742,2.68582 l -4.0068,0.1257 -0.15958,3.23859 c -0.0878,1.78123 -0.23603,7.25092 -0.32946,12.15487 l -0.16989,8.91627 h -5.05597 -5.05597 l -0.16387,-5.06752 z"
     id="path3091"
     inkscape:connector-curvature="0" />
  <path
     style="fill:#ffffff"
     d="m -174.90988,8.7165697 c 8e-4,-15.04636 0.22499,-21.8061097 0.74001,-22.3211397 0.35861,-0.3586 1.98643,-0.38169 15.41759,-0.21869 14.38247,0.17454 18.22546,0.32551 18.63188,0.73193 0.24856,0.24856 -1.03513,2.27495 -3.29641,5.2035897 l -1.85832,2.40675 -8.21067,0.026 c -10.47408,0.0331 -11.42911,0.17661 -11.05648,1.66128 0.27407,1.092 1.43773,1.39092 6.50083,1.66997 2.50561,0.13809 6.63397,0.3647 9.17415,0.50359 4.86919,0.26621 6.41376,0.57151 6.83044,1.35009 0.40155,0.7503 0.0542,1.37009 -1.84962,3.30057 -2.915,2.95577 -3.65224,3.15585 -14.08952,3.82375 -4.59044,0.29376 -5.74719,0.55453 -6.31694,1.42408 -1.07102,1.63459 0.0342,1.8665803 9.76668,2.0502603 7.48849,0.14133 12.98281,0.45661 13.86643,0.79569 0.55312,0.21225 0.48746,0.62272 -0.35616,2.22647 -1.05321,2.00218 -3.28329,4.6999 -4.2737,5.16988 -1.31443,0.62374 -7.09639,0.90033 -18.90847,0.90452 l -10.71235,0.004 6.3e-4,-10.7123503 z"
     id="path3093"
     inkscape:connector-curvature="0" />
  <path
     style="fill:#ffffff"
     d="m -162.72859,-112.67838 c -0.10291,-3.84555 -0.13749,-10.6867 -0.0769,-15.20257 0.12752,-9.49489 0.19011,-9.81863 2.05714,-10.63945 2.57602,-1.13252 6.9662,-0.88711 7.83442,0.43795 0.69034,1.0536 0.86255,6.0403 0.68238,19.75923 l -0.16596,12.63673 h -5.07201 -5.07201 l -0.18711,-6.99189 z"
     id="path3097"
     inkscape:connector-curvature="0" />
  <path
     style="fill:#ffffff"
     d="m -164.06072,-145.91569 v -12.4104 l -5.4524,-0.14813 c -5.4863,-0.14905 -7.13229,-0.34085 -7.30231,-0.85089 -0.12929,-0.38787 1.57155,-2.58829 4.20852,-5.44466 l 2.24341,-2.43006 13.86374,0.18082 c 13.1012,0.17087 17.8839,0.37203 18.28076,0.7689 0.29832,0.29832 -1.07934,2.77555 -2.61663,4.70506 -2.15012,2.6987 -2.79934,2.95552 -7.83837,3.10075 l -4.02172,0.11591 -0.16596,3.08653 c -0.0913,1.6976 -0.16596,5.47636 -0.16596,8.39725 0,5.64942 -0.37326,11.57213 -0.77682,12.32619 -0.37226,0.69559 -2.42468,1.01312 -6.54843,1.01312 h -3.70783 z"
     id="path3099"
     inkscape:connector-curvature="0" />
  <path
     style="fill:#ffffff"
     d="m -159.86596,-180.40474 c -1.13141,-0.28064 -2.05101,-1.18331 -2.34817,-2.30491 -0.13328,-0.50312 -0.341,-2.42495 -0.46157,-4.27074 -0.31914,-4.8854 -0.37287,-4.96939 -9.63113,-15.0549 -7.41473,-8.07727 -9.21344,-10.16334 -9.08944,-10.54154 0.21187,-0.6462 2.58871,-0.95775 6.72938,-0.88208 5.46548,0.0999 5.65184,0.20272 11.03521,6.09007 2.98224,3.26141 6.12027,6.16771 6.66113,6.1692 0.14547,4e-4 2.86241,-2.63628 6.03762,-5.85928 6.59041,-6.68961 6.099,-6.39287 10.97838,-6.62935 2.94258,-0.14261 5.79018,0.1599 6.2995,0.66922 0.46018,0.46019 -1.78702,3.30941 -9.92856,12.58843 -5.20936,5.93718 -6.65228,7.85362 -7.40535,9.83551 -0.44059,1.15955 -0.94144,5.7451 -0.96281,8.81521 -0.007,1.07056 -0.0118,1.07529 -1.09797,1.21064 -2.23012,0.27789 -5.99302,0.36872 -6.81622,0.16452 z"
     id="path3101"
     inkscape:connector-curvature="0" />
  <path
     style="fill:#ffffff"
     d="m -169.1968,-216.448 c -2.30997,-0.53984 -1.96681,-1.48787 2.09789,-5.79566 1.92155,-2.03647 3.01365,-3.41016 3.22836,-4.06076 0.39792,-1.20569 0.20687,-10.54969 -0.25823,-12.62966 -0.32882,-1.47057 -0.50888,-1.62552 -2.43569,-2.09618 -1.88643,-0.46079 -2.01429,-0.6385 -1.36938,-1.90332 0.29877,-0.58595 1.34886,-2.2664 2.33354,-3.73432 l 1.79033,-2.66895 9.01268,0.16649 c 9.25974,0.17105 10.42389,0.25988 10.42389,0.79542 0,0.57975 -1.61709,2.75607 -3.62042,4.87244 -1.45063,1.5325 -2.27141,2.19045 -3.00769,2.41105 -1.42178,0.42597 -1.80785,1.37975 -2.13253,5.26823 -0.30987,3.71122 0.0328,8.9218 0.66745,10.14907 0.50108,0.969 0.93291,1.19732 2.70493,1.43023 2.60034,0.34178 2.91767,1.3013 1.20054,3.62998 -1.20254,1.63081 -3.36315,3.41288 -4.79271,3.95302 -1.1201,0.42322 -14.19138,0.59889 -15.84296,0.21292 z"
     id="path3103"
     inkscape:connector-curvature="0" />
  <path
     style="fill:#ffffff"
     d="m -169.62252,-241.44057 c -1.84224,-0.34899 -1.10168,-1.97469 2.84885,-6.25392 2.68465,-2.90801 3.05973,-3.59828 3.22846,-5.94137 0.19278,-2.67691 -0.32014,-9.9169 -0.78064,-11.01903 -0.33821,-0.80946 -0.56639,-0.97293 -1.87864,-1.34585 -2.11403,-0.60079 -2.35255,-0.88258 -1.77517,-2.09714 0.59841,-1.25879 2.4626,-3.853 3.41924,-4.75822 0.53538,-0.50662 1.18337,-0.78213 2.24649,-0.95515 2.07928,-0.33842 13.98688,-0.58217 16.16878,-0.33098 1.5959,0.18372 1.7868,0.2637 1.71278,0.71757 -0.22672,1.39032 -4.29322,5.92495 -6.35945,7.09155 -2.06531,1.16608 -2.23727,1.4589 -2.35749,4.01439 -0.0578,1.22871 0.0202,4.25308 0.17333,6.72081 0.31696,5.1076 0.50853,5.61926 2.23723,5.97537 3.12411,0.64357 3.6389,1.07548 3.1055,2.60557 -0.39825,1.14244 -3.75011,4.41081 -5.2086,5.07886 -1.20058,0.54993 -1.58772,0.57802 -8.57001,0.6218 -4.02195,0.0252 -7.71674,-0.0307 -8.21066,-0.12426 z"
     id="path3105"
     inkscape:connector-curvature="0" />
  <path
     style="fill:#ffffff"
     d="m -181.51178,-33.66303 v -8.56736 l 7.8739,-0.002 c 14.69031,-0.004 19.17233,-0.14482 22.56331,-0.71071 2.58418,-0.43125 3.9899,-1.13665 4.38591,-2.20088 0.40666,-1.09286 0.0807,-2.545 -0.7149,-3.18461 -1.13536,-0.91278 -3.27556,-1.4001 -7.29525,-1.66111 -1.63436,-0.10612 -5.92593,-0.19261 -12.92539,-0.26049 -6.276,-0.0609 -7.69098,-0.0984 -9.62188,-0.25537 -1.72526,-0.14023 -2.90706,-0.38027 -3.14011,-0.63778 -0.15833,-0.17496 -0.0979,-0.43703 0.22355,-0.96898 0.64787,-1.07226 2.0756,-2.66167 4.51624,-5.02765 l 1.64974,-1.59928 5.91242,0.0783 c 12.68692,0.16805 17.32414,0.38146 21.27536,0.97908 1.94209,0.29375 3.19668,0.64859 4.30383,1.2173 1.24988,0.64202 2.25716,1.36623 3.28853,2.36439 2.61108,2.52698 3.97988,5.87589 3.70276,9.05914 -0.16822,1.9322 -0.72149,3.15751 -2.21043,4.89534 -0.21159,0.24696 -1.45361,1.5238 -2.76003,2.83742 -1.43764,1.44556 -2.35086,2.41024 -2.31336,2.44372 0.0341,0.0304 1.0867,0.94637 2.33914,2.03543 2.84832,2.47673 4.10211,3.62062 5.4522,4.97428 1.1577,1.16078 1.60845,1.72997 1.50272,1.89759 -0.15242,0.24164 -1.07954,0.45233 -2.68922,0.61113 -1.1722,0.11564 -7.25379,0.11385 -8.17859,-0.002 -2.65092,-0.33326 -3.70871,-0.93272 -8.35993,-4.73772 -2.9143,-2.38408 -4.0373,-3.12347 -5.4635,-3.59716 -1.18412,-0.39329 -2.53536,-0.52728 -5.32411,-0.52793 -5.32285,-10e-4 -6.89113,0.47388 -7.6194,2.30839 -0.2704,0.68112 -0.39184,1.34008 -0.59105,3.20729 -0.12612,1.18207 -0.245,1.74203 -0.44076,2.07606 -0.19668,0.3356 -0.3155,0.44153 -0.71408,0.63662 -0.6856,0.33556 -1.40944,0.42277 -5.67691,0.68391 -1.14661,0.0702 -2.27958,0.14463 -2.51773,0.16546 l -0.43298,0.0379 v -8.56735 z"
     id="path3126"
     inkscape:connector-curvature="0" />
  <g
     style="fill:#000000;stroke:none"
     id="g3250"
     transform="matrix(0.1,0,0,-0.1,-1.9909061,44.0578)">
    <path
       inkscape:connector-curvature="0"
       id="path3252"
       d="M 30,371 C 19,350 16,91 26,53 32,30 35,30 188,30 h 155 l 28,29 c 41,44 52,68 33,75 -9,3 -67,6 -130,6 -69,0 -114,4 -114,10 0,6 36,10 89,10 h 89 l 31,42 c 17,23 31,46 31,50 0,4 -55,8 -122,8 -67,0 -118,3 -115,6 4,4 43,6 88,5 l 81,-2 44,47 c 25,26 43,52 41,58 -2,7 -65,12 -190,14 -176,2 -187,1 -197,-17 z m 360,-9 c 0,-9 -12,-29 -27,-44 -26,-27 -31,-28 -119,-28 -70,0 -93,-3 -97,-14 -8,-21 14,-26 129,-26 57,0 104,-3 104,-6 0,-3 -12,-21 -26,-40 -26,-34 -27,-34 -108,-34 -83,0 -114,-9 -102,-29 5,-7 50,-11 126,-11 65,0 121,-4 124,-8 3,-5 -9,-25 -25,-46 L 338,39 192,42 45,45 42,199 c -1,86 2,158 7,165 6,7 65,11 175,12 143,1 166,-1 166,-14 z" />
    <path
       inkscape:connector-curvature="0"
       id="path3254"
       d="m 436,349 c -53,-57 -46,-74 29,-74 h 60 l 5,-120 5,-120 h 60 60 l 3,118 3,117 h 43 c 38,0 48,5 74,36 l 31,37 3,-154 3,-154 160,-2 160,-3 25,34 25,34 5,-31 c 5,-31 7,-32 58,-35 62,-4 82,8 82,49 0,29 0,29 63,29 58,0 65,-2 107,-40 45,-40 45,-40 128,-40 99,0 104,10 36,67 l -47,39 28,26 c 23,21 29,37 33,82 4,54 3,58 -32,91 -21,19 -46,35 -56,35 -10,0 -22,5 -25,10 -4,6 -64,10 -149,10 h -142 l -25,-27 c -77,-86 -72,-90 133,-92 89,-1 164,-4 166,-6 3,-2 2,-11 -1,-20 -5,-13 -31,-15 -166,-15 -88,0 -166,-3 -175,-6 -11,-4 -16,-19 -16,-45 v -39 h -120 c -73,0 -120,4 -120,10 0,6 35,10 84,10 h 85 l 30,37 c 50,60 46,63 -84,63 -63,0 -115,3 -115,8 0,4 41,7 91,7 84,0 91,2 110,25 40,50 51,69 44,80 -4,6 -126,10 -364,10 H 472 Z m 362,13 c 1,-5 -9,-24 -23,-41 -23,-27 -33,-31 -76,-31 H 651 L 648,168 645,45 h -50 -50 l -3,123 -3,122 h -58 c -32,0 -60,3 -64,6 -9,10 53,73 77,76 44,8 301,-2 304,-10 z m 379,4 c 3,-2 -8,-21 -24,-40 l -28,-36 h -98 c -88,0 -98,-2 -95,-17 3,-16 18,-18 116,-21 123,-3 132,-9 84,-55 -24,-23 -36,-26 -112,-29 -71,-3 -85,-6 -88,-21 -3,-15 8,-17 117,-17 66,0 122,-4 125,-9 6,-8 -28,-59 -49,-73 -5,-4 -74,-8 -152,-8 H 830 v 163 c 0,90 2,166 4,168 6,6 337,1 343,-5 z m 415,-10 c 46,-20 78,-64 78,-110 0,-27 -8,-44 -37,-72 l -37,-37 47,-41 c 26,-23 47,-44 47,-48 0,-5 -30,-8 -66,-8 -65,0 -69,2 -122,45 -50,42 -59,45 -111,45 -69,0 -79,-6 -83,-50 -3,-34 -4,-35 -50,-38 l -48,-3 v 85 86 h 149 c 161,0 201,8 201,39 0,34 -32,41 -189,41 -103,0 -151,3 -151,11 0,6 15,25 33,43 l 32,31 136,-2 c 93,-2 146,-7 171,-17 z" />
    <path
       inkscape:connector-curvature="0"
       id="path3256"
       d="m 1756,371 c -15,-17 -18,-40 -17,-163 0,-79 0,-151 1,-161 0,-16 8,-18 63,-15 l 62,3 5,79 5,78 35,-31 c 19,-17 60,-50 90,-74 30,-23 57,-45 58,-49 2,-5 21,-8 41,-8 65,0 71,15 71,187 0,174 -1,176 -82,171 l -53,-3 -5,-82 -5,-82 -55,50 c -30,27 -67,57 -82,66 -16,10 -28,21 -28,25 0,4 -7,8 -15,8 -8,0 -15,5 -15,10 0,18 -56,11 -74,-9 z m 387,0 c 4,-1 6,-71 5,-157 -3,-131 -6,-159 -19,-167 -20,-13 -58,-3 -84,20 -11,10 -32,27 -46,38 -14,11 -50,39 -78,63 -29,23 -57,40 -62,36 -5,-3 -9,-41 -9,-85 V 39 l -47,3 -48,3 -3,149 c -3,161 1,176 48,176 29,0 42,-9 154,-102 38,-32 75,-58 83,-58 10,0 13,19 13,78 0,43 2,81 5,84 4,4 55,3 88,-1 z" />
    <path
       inkscape:connector-curvature="0"
       id="path3258"
       d="m 2194,377 c -2,-7 -3,-87 -2,-177 l 3,-165 h 60 60 l 2,100 c 4,143 3,141 60,139 26,-1 56,-2 65,-3 15,-1 18,-16 20,-118 l 3,-118 h 60 60 l 3,118 3,117 h 38 c 42,0 86,28 96,60 8,27 29,25 48,-3 8,-13 49,-58 90,-100 75,-76 76,-78 79,-135 l 3,-57 h 60 60 l 6,56 c 3,31 12,65 20,76 29,41 152,173 157,168 3,-2 -1,-11 -8,-20 -18,-21 -5,-45 25,-45 24,0 25,-2 25,-64 0,-51 -4,-68 -18,-78 -25,-19 -62,-68 -62,-84 0,-11 23,-14 103,-14 h 104 l 31,35 c 39,43 41,63 5,67 -27,3 -28,6 -31,65 -3,58 -1,64 28,91 16,16 30,34 30,41 0,6 5,11 10,11 7,0 7,-7 0,-21 -16,-29 -5,-49 25,-49 24,0 25,-2 25,-65 0,-46 -4,-67 -14,-71 -18,-7 -80,-94 -72,-101 3,-4 52,-6 108,-4 101,2 103,2 135,34 43,42 43,65 1,69 l -33,3 -3,68 c -2,53 0,67 12,67 17,0 73,68 78,95 3,19 -4,20 -96,23 -97,3 -100,2 -128,-25 l -30,-28 4,25 3,25 -100,3 c -90,2 -103,0 -123,-18 l -22,-21 v 21 c 0,18 -6,20 -69,20 h -70 l -58,-65 -57,-66 -61,66 -60,65 h -247 -246 l -36,-42 c -35,-42 -36,-42 -36,-16 0,51 -8,58 -66,58 -35,0 -56,-5 -60,-13 z m 111,-19 c 3,-13 4,-88 3,-168 l -3,-145 h -50 -50 l -3,154 c -2,104 1,158 9,167 6,8 29,14 50,14 32,0 40,-4 44,-22 z m 421,10 c 3,-4 -6,-23 -21,-42 -25,-33 -32,-36 -76,-36 h -49 l -1,-102 c -1,-57 -2,-107 -4,-113 -1,-5 -3,-16 -3,-22 -1,-9 -19,-13 -52,-13 h -50 v 125 125 h -65 c -36,0 -65,4 -65,8 0,4 15,24 33,43 l 32,34 h 157 c 87,-1 160,-4 164,-7 z m 214,-57 c 30,-34 59,-61 65,-61 5,0 34,28 65,62 56,62 57,62 113,63 35,1 57,-3 57,-9 0,-6 -40,-56 -90,-111 -87,-98 -89,-101 -92,-155 l -3,-55 -44,-3 c -52,-4 -61,5 -61,68 0,43 -5,50 -95,147 -52,55 -95,104 -95,106 0,8 39,12 85,11 35,-2 46,-9 95,-63 z m 550,53 c 0,-13 -53,-74 -65,-74 -18,0 -25,-23 -25,-85 0,-69 7,-85 36,-85 32,0 30,-20 -4,-53 -26,-25 -34,-27 -120,-27 -104,0 -106,4 -42,67 30,29 31,33 28,104 -3,68 -5,74 -25,77 -13,2 -23,6 -23,10 0,3 10,21 23,39 l 22,33 h 98 c 53,0 97,-3 97,-6 z m 250,1 c 0,-15 -48,-68 -68,-76 -21,-8 -23,-13 -20,-86 3,-77 3,-78 31,-81 35,-4 34,-21 -1,-55 -26,-25 -34,-27 -120,-27 -88,0 -92,1 -82,19 5,11 24,33 40,50 30,29 31,34 28,103 -3,67 -5,73 -25,76 -13,2 -23,7 -23,10 0,10 31,55 44,64 12,9 196,11 196,3 z" />
  </g>
  <path
     inkscape:connector-curvature="0"
     id="path3260"
     d="m -160.73266,97.70709 c -7.72733,-0.16768 -14.11586,-0.37104 -14.19672,-0.4519 -0.23605,-0.23605 -0.25578,-28.1129 -0.0213,-30.02141 0.15287,-1.24401 0.34109,-1.80247 0.66615,-1.97643 1.11044,-0.59429 5.28953,-0.82436 17.33819,-0.95449 17.75747,-0.1918 17.99858,-0.12861 15.24473,3.99531 -1.2207,1.82801 -3.43151,3.73482 -4.80214,4.14182 -0.52195,0.15499 -4.35515,0.38117 -8.51821,0.50262 -4.16307,0.12146 -7.85787,0.30337 -8.21067,0.40427 -1.74337,0.49856 -2.10226,1.95479 -0.63304,2.56866 1.22846,0.51329 6.09017,0.86138 12.43587,0.89041 5.29065,0.0242 9.61244,0.27749 9.91612,0.58117 0.2456,0.2456 -2.33933,4.05968 -3.74503,5.52581 -0.81753,0.85266 -1.56569,1.37033 -2.2259,1.54014 -0.54697,0.14068 -3.53465,0.32811 -6.63931,0.41653 -7.7264,0.22003 -10.83565,0.71614 -10.9352,1.74484 -0.0576,0.59538 0.0824,1.08435 0.3599,1.25653 0.6871,0.4264 5.1062,0.74105 13.6543,0.97222 9.05294,0.24482 11.16138,0.46083 11.16138,1.14353 0,1.13301 -5.44072,8.10477 -6.2863,8.05528 -0.28224,-0.0165 -6.83553,-0.16722 -14.56287,-0.33491 z"
     style="fill:#ffffff" />
  <path
     inkscape:connector-curvature="0"
     id="path3262"
     d="m -163.8565,53.82904 c -0.0901,-2.78714 -0.23957,-8.2716 -0.33208,-12.18771 l -0.16822,-7.12019 -3.23314,-0.0112 c -4.09388,-0.0142 -8.46443,-0.37067 -8.81261,-0.71885 -0.47231,-0.47231 0.31303,-1.79792 2.22251,-3.75145 2.78616,-2.85043 4.28326,-3.72931 6.87076,-4.0335 4.2436,-0.49889 27.58141,0.39052 28.72055,1.09455 0.54875,0.33914 -0.78342,2.74463 -2.58881,4.6746 -2.15503,2.30374 -2.81047,2.53125 -7.73742,2.68582 l -4.0068,0.1257 -0.15958,3.23859 c -0.0878,1.78123 -0.23603,7.25092 -0.32946,12.15487 l -0.16989,8.91627 h -5.05597 -5.05597 l -0.16387,-5.06752 z"
     style="fill:#ffffff" />
  <path
     inkscape:connector-curvature="0"
     id="path3264"
     d="m -174.90988,8.7165697 c 8e-4,-15.04636 0.22499,-21.8061097 0.74001,-22.3211397 0.35861,-0.3586 1.98643,-0.38169 15.41759,-0.21869 14.38247,0.17454 18.22546,0.32551 18.63188,0.73193 0.24856,0.24856 -1.03513,2.27495 -3.29641,5.2035897 l -1.85832,2.40675 -8.21067,0.026 c -10.47408,0.0331 -11.42911,0.17661 -11.05648,1.66128 0.27407,1.092 1.43773,1.39092 6.50083,1.66997 2.50561,0.13809 6.63397,0.3647 9.17415,0.50359 4.86919,0.26621 6.41376,0.57151 6.83044,1.35009 0.40155,0.7503 0.0542,1.37009 -1.84962,3.30057 -2.915,2.95577 -3.65224,3.15585 -14.08952,3.82375 -4.59044,0.29376 -5.74719,0.55453 -6.31694,1.42408 -1.07102,1.63459 0.0342,1.8665803 9.76668,2.0502603 7.48849,0.14133 12.98281,0.45661 13.86643,0.79569 0.55312,0.21225 0.48746,0.62272 -0.35616,2.22647 -1.05321,2.00218 -3.28329,4.6999 -4.2737,5.16988 -1.31443,0.62374 -7.09639,0.90033 -18.90847,0.90452 l -10.71235,0.004 6.3e-4,-10.7123503 z"
     style="fill:#ffffff" />
  <path
     inkscape:connector-curvature="0"
     id="path3268"
     d="m -162.72859,-112.67838 c -0.10291,-3.84555 -0.13749,-10.6867 -0.0769,-15.20257 0.12752,-9.49489 0.19011,-9.81863 2.05714,-10.63945 2.57602,-1.13252 6.9662,-0.88711 7.83442,0.43795 0.69034,1.0536 0.86255,6.0403 0.68238,19.75923 l -0.16596,12.63673 h -5.07201 -5.07201 l -0.18711,-6.99189 z"
     style="fill:#ffffff" />
  <path
     inkscape:connector-curvature="0"
     id="path3270"
     d="m -164.06072,-145.91569 v -12.4104 l -5.4524,-0.14813 c -5.4863,-0.14905 -7.13229,-0.34085 -7.30231,-0.85089 -0.12929,-0.38787 1.57155,-2.58829 4.20852,-5.44466 l 2.24341,-2.43006 13.86374,0.18082 c 13.1012,0.17087 17.8839,0.37203 18.28076,0.7689 0.29832,0.29832 -1.07934,2.77555 -2.61663,4.70506 -2.15012,2.6987 -2.79934,2.95552 -7.83837,3.10075 l -4.02172,0.11591 -0.16596,3.08653 c -0.0913,1.6976 -0.16596,5.47636 -0.16596,8.39725 0,5.64942 -0.37326,11.57213 -0.77682,12.32619 -0.37226,0.69559 -2.42468,1.01312 -6.54843,1.01312 h -3.70783 z"
     style="fill:#ffffff" />
  <path
     inkscape:connector-curvature="0"
     id="path3272"
     d="m -159.86596,-180.40474 c -1.13141,-0.28064 -2.05101,-1.18331 -2.34817,-2.30491 -0.13328,-0.50312 -0.341,-2.42495 -0.46157,-4.27074 -0.31914,-4.8854 -0.37287,-4.96939 -9.63113,-15.0549 -7.41473,-8.07727 -9.21344,-10.16334 -9.08944,-10.54154 0.21187,-0.6462 2.58871,-0.95775 6.72938,-0.88208 5.46548,0.0999 5.65184,0.20272 11.03521,6.09007 2.98224,3.26141 6.12027,6.16771 6.66113,6.1692 0.14547,4e-4 2.86241,-2.63628 6.03762,-5.85928 6.59041,-6.68961 6.099,-6.39287 10.97838,-6.62935 2.94258,-0.14261 5.79018,0.1599 6.2995,0.66922 0.46018,0.46019 -1.78702,3.30941 -9.92856,12.58843 -5.20936,5.93718 -6.65228,7.85362 -7.40535,9.83551 -0.44059,1.15955 -0.94144,5.7451 -0.96281,8.81521 -0.007,1.07056 -0.0118,1.07529 -1.09797,1.21064 -2.23012,0.27789 -5.99302,0.36872 -6.81622,0.16452 z"
     style="fill:#ffffff" />
  <path
     inkscape:connector-curvature="0"
     id="path3274"
     d="m -169.1968,-216.448 c -2.30997,-0.53984 -1.96681,-1.48787 2.09789,-5.79566 1.92155,-2.03647 3.01365,-3.41016 3.22836,-4.06076 0.39792,-1.20569 0.20687,-10.54969 -0.25823,-12.62966 -0.32882,-1.47057 -0.50888,-1.62552 -2.43569,-2.09618 -1.88643,-0.46079 -2.01429,-0.6385 -1.36938,-1.90332 0.29877,-0.58595 1.34886,-2.2664 2.33354,-3.73432 l 1.79033,-2.66895 9.01268,0.16649 c 9.25974,0.17105 10.42389,0.25988 10.42389,0.79542 0,0.57975 -1.61709,2.75607 -3.62042,4.87244 -1.45063,1.5325 -2.27141,2.19045 -3.00769,2.41105 -1.42178,0.42597 -1.80785,1.37975 -2.13253,5.26823 -0.30987,3.71122 0.0328,8.9218 0.66745,10.14907 0.50108,0.969 0.93291,1.19732 2.70493,1.43023 2.60034,0.34178 2.91767,1.3013 1.20054,3.62998 -1.20254,1.63081 -3.36315,3.41288 -4.79271,3.95302 -1.1201,0.42322 -14.19138,0.59889 -15.84296,0.21292 z"
     style="fill:#ffffff" />
  <path
     inkscape:connector-curvature="0"
     id="path3276"
     d="m -169.62252,-241.44057 c -1.84224,-0.34899 -1.10168,-1.97469 2.84885,-6.25392 2.68465,-2.90801 3.05973,-3.59828 3.22846,-5.94137 0.19278,-2.67691 -0.32014,-9.9169 -0.78064,-11.01903 -0.33821,-0.80946 -0.56639,-0.97293 -1.87864,-1.34585 -2.11403,-0.60079 -2.35255,-0.88258 -1.77517,-2.09714 0.59841,-1.25879 2.4626,-3.853 3.41924,-4.75822 0.53538,-0.50662 1.18337,-0.78213 2.24649,-0.95515 2.07928,-0.33842 13.98688,-0.58217 16.16878,-0.33098 1.5959,0.18372 1.7868,0.2637 1.71278,0.71757 -0.22672,1.39032 -4.29322,5.92495 -6.35945,7.09155 -2.06531,1.16608 -2.23727,1.4589 -2.35749,4.01439 -0.0578,1.22871 0.0202,4.25308 0.17333,6.72081 0.31696,5.1076 0.50853,5.61926 2.23723,5.97537 3.12411,0.64357 3.6389,1.07548 3.1055,2.60557 -0.39825,1.14244 -3.75011,4.41081 -5.2086,5.07886 -1.20058,0.54993 -1.58772,0.57802 -8.57001,0.6218 -4.02195,0.0252 -7.71674,-0.0307 -8.21066,-0.12426 z"
     style="fill:#ffffff" />
  <path
     inkscape:connector-curvature="0"
     id="path3278"
     d="m -181.51178,-33.66303 v -8.56736 l 7.8739,-0.002 c 14.69031,-0.004 19.17233,-0.14482 22.56331,-0.71071 2.58418,-0.43125 3.9899,-1.13665 4.38591,-2.20088 0.40666,-1.09286 0.0807,-2.545 -0.7149,-3.18461 -1.13536,-0.91278 -3.27556,-1.4001 -7.29525,-1.66111 -1.63436,-0.10612 -5.92593,-0.19261 -12.92539,-0.26049 -6.276,-0.0609 -7.69098,-0.0984 -9.62188,-0.25537 -1.72526,-0.14023 -2.90706,-0.38027 -3.14011,-0.63778 -0.15833,-0.17496 -0.0979,-0.43703 0.22355,-0.96898 0.64787,-1.07226 2.0756,-2.66167 4.51624,-5.02765 l 1.64974,-1.59928 5.91242,0.0783 c 12.68692,0.16805 17.32414,0.38146 21.27536,0.97908 1.94209,0.29375 3.19668,0.64859 4.30383,1.2173 1.24988,0.64202 2.25716,1.36623 3.28853,2.36439 2.61108,2.52698 3.97988,5.87589 3.70276,9.05914 -0.16822,1.9322 -0.72149,3.15751 -2.21043,4.89534 -0.21159,0.24696 -1.45361,1.5238 -2.76003,2.83742 -1.43764,1.44556 -2.35086,2.41024 -2.31336,2.44372 0.0341,0.0304 1.0867,0.94637 2.33914,2.03543 2.84832,2.47673 4.10211,3.62062 5.4522,4.97428 1.1577,1.16078 1.60845,1.72997 1.50272,1.89759 -0.15242,0.24164 -1.07954,0.45233 -2.68922,0.61113 -1.1722,0.11564 -7.25379,0.11385 -8.17859,-0.002 -2.65092,-0.33326 -3.70871,-0.93272 -8.35993,-4.73772 -2.9143,-2.38408 -4.0373,-3.12347 -5.4635,-3.59716 -1.18412,-0.39329 -2.53536,-0.52728 -5.32411,-0.52793 -5.32285,-10e-4 -6.89113,0.47388 -7.6194,2.30839 -0.2704,0.68112 -0.39184,1.34008 -0.59105,3.20729 -0.12612,1.18207 -0.245,1.74203 -0.44076,2.07606 -0.19668,0.3356 -0.3155,0.44153 -0.71408,0.63662 -0.6856,0.33556 -1.40944,0.42277 -5.67691,0.68391 -1.14661,0.0702 -2.27958,0.14463 -2.51773,0.16546 l -0.43298,0.0379 v -8.56735 z"
     style="fill:#ffffff" />
  <path
     style="fill:#ff0000;stroke-width:0.90715921"
     d=""
     id="path35"
     inkscape:connector-curvature="0"
     transform="scale(0.80000002)" />
  <path
     style="fill:#ffffff;stroke-width:0.90715921"
     d="M 11.035318,49.109683 3.5512547,48.804063 V 29.354111 c 0,-19.4431736 7.114e-4,-19.4500968 2.0411083,-19.8629687 3.9499662,-0.7992711 27.717801,-1.3841652 33.668028,-0.8285245 7.074987,0.6606725 7.548411,1.6745012 2.935847,6.2870652 -3.032024,3.032025 -3.220519,3.085229 -11.1127,3.136621 -11.311446,0.07366 -15.285634,0.887249 -15.285634,3.129258 0,2.418089 2.852842,2.929987 17.060523,3.061247 l 11.617568,0.107331 -1.638816,2.782337 c -3.16813,5.378765 -4.185089,5.799575 -15.199052,6.289255 -10.735268,0.477289 -14.273566,1.696748 -12.193911,4.202577 0.726737,0.875666 3.357135,1.240378 8.945908,1.240378 9.963545,0 21.797615,0.976449 21.797615,1.798558 0,0.343845 -1.483386,2.529163 -3.296413,4.856263 L 39.594915,49.784598 29.057148,49.59995 C 23.261376,49.498394 15.151553,49.277774 11.035318,49.109683 Z"
     id="path59"
     inkscape:connector-curvature="0"
     transform="scale(0.80000002)" />
  <path
     style="fill:#ffffff;stroke-width:0.90715921"
     d="m 65.693113,33.489556 -0.659931,-15.387883 -7.835193,-0.260614 -7.835193,-0.260614 4.324936,-4.309006 4.324935,-4.3090065 15.632568,0.067241 c 8.597912,0.036983 17.45922,0.3431491 19.691796,0.6803695 l 4.059227,0.613128 -3.484417,3.855427 c -3.393659,3.755004 -3.6325,3.855427 -9.169591,3.855427 -7.004936,0 -6.774837,-0.591644 -6.791551,17.462815 l -0.01239,13.380599 h -5.792633 -5.792635 z"
     id="path61"
     inkscape:connector-curvature="0"
     transform="scale(0.80000002)" />
  <path
     style="fill:#ffffff;stroke-width:0.90715921"
     d="m 101.53684,31.522146 c 0.007,-10.162623 0.25853,-19.395996 0.55938,-20.518605 0.54608,-2.0376824 0.57918,-2.0410015 19.71833,-1.9773486 10.54423,0.035068 19.86886,0.3412342 20.7214,0.6803695 1.36099,0.5413931 1.19501,1.0738971 -1.36074,4.3653871 l -2.91081,3.748777 -11.55392,0.366437 c -11.95998,0.379316 -14.73657,1.217061 -12.59326,3.799601 0.79024,0.952172 4.37788,1.484485 13.1837,1.95612 6.65391,0.35638 12.62692,0.974837 13.27334,1.374349 0.93812,0.579788 0.8694,1.193271 -0.34048,3.039786 -2.35533,3.594685 -4.87086,4.464793 -15.02695,5.197737 -6.34169,0.457665 -9.86688,1.118401 -10.76646,2.017987 -2.44927,2.449261 -0.37603,3.325944 7.86541,3.325944 4.38572,0 11.07765,0.262353 14.87096,0.583004 l 6.89693,0.583005 -1.23091,2.365263 c -0.677,1.300895 -2.30945,3.37295 -3.62765,4.604568 -2.34631,2.192183 -2.76809,2.246942 -20.0437,2.60221 l -17.64696,0.362905 z"
     id="path63"
     inkscape:connector-curvature="0"
     transform="scale(0.80000002)" />
  <path
     style="fill:#ffffff;stroke-width:0.90715921"
     d="M 149.60389,39.54582 V 29.073302 l 19.73072,-0.350457 c 10.85189,-0.192751 20.42956,-0.673193 21.2837,-1.067647 3.48536,-1.609575 2.89552,-6.460437 -0.96399,-7.92782 -1.28624,-0.489027 -10.10939,-1.103839 -19.607,-1.366251 -9.4976,-0.262412 -17.84952,-0.661857 -18.55982,-0.887655 -0.9098,-0.289218 -0.10553,-1.633486 2.72147,-4.548746 l 4.01293,-4.1382024 17.23603,0.4001425 c 19.30822,0.4482494 21.78297,1.0481659 26.50384,6.4249389 3.08294,3.511274 4.47039,8.223642 3.40738,11.572886 -0.35802,1.128011 -2.51093,4.039414 -4.78426,6.469785 l -4.13332,4.418857 5.83204,5.319571 c 6.78865,6.192106 6.42904,6.809773 -3.63357,6.241185 -5.83077,-0.329468 -6.64089,-0.64488 -11.6527,-4.5369 -7.71911,-5.994433 -8.95365,-6.48809 -16.38874,-6.553397 -5.94872,-0.05225 -6.87137,0.17433 -8.40074,2.063016 -0.94493,1.166942 -1.71806,3.277062 -1.71806,4.689155 0,3.133665 -0.27282,3.3147 -6.17544,4.097709 l -4.71047,0.624866 z"
     id="path65"
     inkscape:connector-curvature="0"
     transform="scale(0.80000002)" />
  <path
     style="fill:#ffffff;stroke-width:0.90715921"
     d="m 220.20793,49.141829 c -2.29978,-0.352168 -2.45366,-0.70577 -3.0427,-6.991751 -0.34124,-3.641452 -0.47587,-12.019155 -0.2992,-18.617117 0.28738,-10.732284 0.51239,-12.137849 2.13554,-13.33974 2.84391,-2.1058248 6.52406,-0.7995358 13.82224,4.906282 3.65987,2.861331 9.16761,7.156248 12.23943,9.54426 3.07182,2.388012 6.22081,4.220871 6.99776,4.073021 1.12708,-0.214482 1.52768,-2.192348 1.98183,-9.784796 0.31307,-5.233787 0.61923,-9.6180313 0.68037,-9.7427657 0.0611,-0.1247344 2.34861,-0.2267898 5.08326,-0.2267898 4.62105,0 5.01465,0.1695879 5.57497,2.4020565 0.7255,2.890647 -0.1575,33.686267 -1.0291,35.890888 -0.84019,2.125156 -3.34027,2.763663 -6.34624,1.620794 -1.38098,-0.525048 -7.25206,-4.769007 -13.04684,-9.431021 -12.38558,-9.964439 -14.50703,-11.252079 -15.62682,-9.484925 -0.42785,0.675185 -0.78415,5.411881 -0.79179,10.525991 l -0.0139,9.298382 -2.94827,-0.135921 c -1.62155,-0.07476 -4.0383,-0.302839 -5.37055,-0.506848 z"
     id="path67"
     inkscape:connector-curvature="0"
     transform="scale(0.80000002)" />
  <path
     style="fill:#ffffff;stroke-width:0.90715921"
     d="m 273.41978,42.264097 c -0.34509,-3.682635 -0.48371,-12.30704 -0.30804,-19.165345 0.28388,-11.083384 0.51515,-12.612713 2.0803,-13.7565623 2.69437,-1.9691086 8.40315,-1.6689109 9.56552,0.503006 0.60694,1.1340693 0.86793,8.5298783 0.71229,20.1842933 l -0.24565,18.39437 -5.58849,0.267968 -5.58849,0.267968 z"
     id="path69"
     inkscape:connector-curvature="0"
     transform="scale(0.80000002)" />
  <path
     style="fill:#ffffff;stroke-width:0.90715921"
     d="M 306.54244,33.909312 V 18.034025 h -8.21843 -8.21843 l 3.82464,-4.535796 3.82463,-4.5357965 h 19.8155 c 15.43169,0 19.8155,0.2553119 19.8155,1.1540485 0,0.634726 -1.25438,2.675834 -2.78752,4.535796 -2.72399,3.304675 -2.92935,3.381748 -9.01054,3.381748 h -6.22302 l -0.28784,15.002879 c -0.32733,17.061142 -0.16499,16.711616 -7.7719,16.733803 l -4.76259,0.01389 z"
     id="path71"
     inkscape:connector-curvature="0"
     transform="scale(0.80000002)" />
  <path
     style="fill:#ffffff;stroke-width:0.90715921"
     d="m 368.75626,48.589717 c -1.14586,-0.83787 -1.8182,-2.973572 -2.25027,-7.148001 -0.70578,-6.81887 -0.95738,-7.203094 -14.09521,-21.524547 -4.77115,-5.20099 -8.67481,-9.793483 -8.67481,-10.205541 0,-0.4120575 2.91012,-0.7491955 6.46693,-0.7491955 h 6.46693 l 7.87985,7.7108535 c 4.33392,4.240969 8.24153,7.710854 8.68358,7.710854 0.44206,0 4.12088,-3.469885 8.17517,-7.710854 l 7.37143,-7.7108535 h 6.58275 c 3.82891,0 6.45624,0.3658361 6.28036,0.8744924 -0.16632,0.4809711 -4.75102,6.0272831 -10.18823,12.3251391 -10.36188,12.002027 -12.23425,15.394841 -12.29974,22.287674 -0.0392,4.128032 -0.0904,4.198669 -3.44167,4.752602 -4.70367,0.777469 -5.10425,0.742196 -6.95707,-0.612623 z"
     id="path73"
     inkscape:connector-curvature="0"
     transform="scale(0.80000002)" />
  <path
     style="fill:#ffffff;stroke-width:0.90715921"
     d="m 402.83445,48.978915 c -1.59083,-1.008063 -0.46189,-3.137934 3.87463,-7.309915 l 3.24951,-3.126222 v -8.365863 c 0,-8.847543 -0.45226,-11.227036 -2.13816,-11.249622 -0.57029,-0.0076 -1.59857,-0.369663 -2.28506,-0.804496 -0.99811,-0.632216 -0.6565,-1.650559 1.70515,-5.083102 l 2.95332,-4.2924966 10.74125,0.3829656 c 5.90769,0.2106311 10.99347,0.63519 11.30175,0.943464 0.89599,0.895991 -3.32937,6.026732 -6.50748,7.901864 -2.65593,1.567035 -2.95914,2.217347 -3.48034,7.464464 -0.31402,3.161333 -0.24203,7.584875 0.15998,9.830094 0.63886,3.568074 1.10051,4.191535 3.66543,4.950184 1.61398,0.477382 2.93451,1.318385 2.93451,1.868895 0,1.881006 -5.43017,6.558963 -8.27382,7.127694 -4.15373,0.830743 -16.4726,0.66702 -17.90067,-0.237908 z"
     id="path75"
     inkscape:connector-curvature="0"
     transform="scale(0.80000002)" />
  <path
     style="fill:#ffffff;stroke-width:0.90715921"
     d="m 433.16635,48.999116 c -0.267,-0.432014 1.54591,-3.316603 4.02868,-6.410197 4.87173,-6.070289 5.34111,-8.28948 3.93032,-18.582284 -0.4947,-3.60927 -0.98927,-4.424813 -3.24033,-5.343344 l -2.65653,-1.083975 2.69094,-3.714735 c 2.58889,-3.573852 2.92681,-3.737007 8.91008,-4.3019927 7.86222,-0.7424094 13.89215,-0.6653592 16.11381,0.2059017 1.54855,0.607289 1.30189,1.100679 -2.34907,4.698826 -2.24361,2.211159 -4.75716,4.54666 -5.58565,5.190004 -1.16051,0.90115 -1.50636,2.697586 -1.50636,7.824249 0,8.867735 0.74645,12.324278 2.66148,12.324278 0.84015,0 2.24411,0.523963 3.1199,1.164363 1.50104,1.097585 1.47624,1.311997 -0.4325,3.738566 -1.11368,1.415812 -3.37199,3.137068 -5.01848,3.825013 -3.32592,1.389657 -19.86487,1.762052 -20.66629,0.465327 z"
     id="path77"
     inkscape:connector-curvature="0"
     transform="scale(0.80000002)" />
</svg>
