<?xml version="1.0" encoding="utf-8"?>
<!DOCTYPE svg PUBLIC "-//W3C//DTD SVG 1.1//EN" "http://www.w3.org/Graphics/SVG/1.1/DTD/svg11.dtd">
<svg version="1.1" xmlns="http://www.w3.org/2000/svg" xmlns:xlink="http://www.w3.org/1999/xlink" x="0px" y="0px" viewBox="0 0 1000 1000" enable-background="new 0 0 1000 1000" xml:space="preserve">
<g>
<path d="M500,10C229.4,10,10,229.4,10,500c0,270.6,219.4,490,490,490s490-219.4,490-490C990,229.4,770.6,10,500,10L500,10z M500,920C268.4,920,80,731.6,80,500C80,268.4,268.4,80,500,80s420,188.4,420,420C920,731.6,731.6,920,500,920L500,920z"
style="fill:lightgray"
/>
<path d="M360,287.8c-38.7,0-70,31.3-70,70v280c0,38.7,31.3,70,70,70c38.7,0,70-31.3,70-70v-280C430,319.1,398.7,287.8,360,287.8z"
style="fill:lightblue"
/>
<path d="M640,288.9c-38.7,0-70,31.3-70,70v280c0,38.7,31.3,70,70,70c38.7,0,70-31.3,70-70v-280C710,320.2,678.7,288.9,640,288.9z"
style="fill:lightblue"
/></g>
</svg>
